<?xml version="1.0" encoding="UTF-8" standalone="no"?>
<!-- Created with Inkscape (http://www.inkscape.org/) -->

<svg
   width="74.23526mm"
   height="20.62923mm"
   viewBox="0 0 74.23526 20.62923"
   version="1.1"
   id="svg9377"
   inkscape:version="1.1.2 (0a00cf5339, 2022-02-04)"
   sodipodi:docname="dyeing_new_waves.svg"
   xmlns:inkscape="http://www.inkscape.org/namespaces/inkscape"
   xmlns:sodipodi="http://sodipodi.sourceforge.net/DTD/sodipodi-0.dtd"
   xmlns="http://www.w3.org/2000/svg"
   xmlns:svg="http://www.w3.org/2000/svg">
  <sodipodi:namedview
     id="namedview9379"
     pagecolor="#ffffff"
     bordercolor="#666666"
     borderopacity="1.0"
     inkscape:pageshadow="2"
     inkscape:pageopacity="0.0"
     inkscape:pagecheckerboard="0"
     inkscape:document-units="mm"
     showgrid="false"
     fit-margin-top="0"
     fit-margin-left="0"
     fit-margin-right="0"
     fit-margin-bottom="0"
     inkscape:zoom="0.66903058"
     inkscape:cx="215.2368"
     inkscape:cy="11.21025"
     inkscape:window-width="1920"
     inkscape:window-height="1012"
     inkscape:window-x="0"
     inkscape:window-y="0"
     inkscape:window-maximized="1"
     inkscape:current-layer="layer1" />
  <defs
     id="defs9374" />
  <g
     inkscape:label="Layer 1"
     inkscape:groupmode="layer"
     id="layer1"
     transform="translate(-68.078109,-138.18538)">
    <path
       id="path7359"
       style="fill:#ffffff;fill-opacity:0.147616;stroke:none;stroke-width:0.169882;stroke-opacity:1"
       d="m 71.225203,138.18538 c -1.029407,7.9e-4 -2.058777,0.90509 -3.088184,1.89963 l -0.05891,18.7296 h 74.235261 l -0.0589,-18.7296 c -1.02943,0.99454 -2.05875,1.90036 -3.08819,1.89962 -1.02943,-7.6e-4 -2.05926,-0.90508 -3.0887,-1.89962 -1.02943,-0.99454 -2.05849,-1.90042 -3.08766,-1.89963 -1.02943,7.9e-4 -2.05927,0.90509 -3.0887,1.89963 -1.02944,0.99454 -2.05875,1.90036 -3.08819,1.89962 -1.02943,-7.6e-4 -2.05901,-0.90508 -3.08818,-1.89962 -1.02943,-0.99454 -2.05875,-1.90042 -3.08818,-1.89963 -1.02944,7.9e-4 -2.05875,0.90509 -3.08819,1.89963 -1.02943,0.99454 -2.05901,1.90036 -3.08818,1.89962 -1.02943,-7.6e-4 -2.05875,-0.90508 -3.08818,-1.89962 -1.02944,-0.99454 -2.05875,-1.90042 -3.08819,-1.89963 -1.02943,7.9e-4 -2.05901,0.90509 -3.08818,1.89963 -1.02944,0.99454 -2.05875,1.90036 -3.08819,1.89962 -1.02943,-7.6e-4 -2.05875,-0.90508 -3.088177,-1.89962 -1.029436,-0.99454 -2.059014,-1.90042 -3.088185,-1.89963 -1.029433,7.9e-4 -2.05875,0.90509 -3.088183,1.89963 -1.029432,0.99454 -2.058831,1.90036 -3.088184,1.89962 -1.029407,-7.6e-4 -2.058776,-0.90508 -3.088183,-1.89962 -1.029406,-0.99454 -2.058777,-1.90042 -3.088184,-1.89963 -1.029406,7.9e-4 -2.059319,0.90509 -3.0887,1.89963 -1.029407,0.99454 -2.058777,1.90036 -3.088183,1.89962 -1.029407,-7.6e-4 -2.058777,-0.90508 -3.088184,-1.89962 -1.029406,-0.99454 -2.058803,-1.90042 -3.088183,-1.89963 z" />
  </g>
</svg>
