<?xml version="1.0" encoding="UTF-8" standalone="no"?>
<!-- Created with Inkscape (http://www.inkscape.org/) -->

<svg
   width="512"
   height="512"
   viewBox="0 0 512 512"
   version="1.1"
   id="svg5"
   inkscape:version="1.1.1 (3bf5ae0d25, 2021-09-20, custom)"
   sodipodi:docname="sewing_base.svg"
   xmlns:inkscape="http://www.inkscape.org/namespaces/inkscape"
   xmlns:sodipodi="http://sodipodi.sourceforge.net/DTD/sodipodi-0.dtd"
   xmlns="http://www.w3.org/2000/svg"
   xmlns:svg="http://www.w3.org/2000/svg">
  <sodipodi:namedview
     id="namedview7"
     pagecolor="#ffffff"
     bordercolor="#666666"
     borderopacity="1.0"
     inkscape:pageshadow="2"
     inkscape:pageopacity="0.0"
     inkscape:pagecheckerboard="0"
     inkscape:document-units="px"
     showgrid="false"
     inkscape:snap-bbox="true"
     inkscape:bbox-paths="true"
     inkscape:bbox-nodes="true"
     inkscape:snap-bbox-edge-midpoints="true"
     inkscape:snap-bbox-midpoints="true"
     showguides="false"
     inkscape:zoom="1"
     inkscape:cx="346"
     inkscape:cy="231"
     inkscape:window-width="1920"
     inkscape:window-height="994"
     inkscape:window-x="0"
     inkscape:window-y="22"
     inkscape:window-maximized="1"
     inkscape:current-layer="layer2" />
  <defs
     id="defs2">
    <inkscape:path-effect
       effect="fillet_chamfer"
       id="path-effect17427"
       is_visible="true"
       lpeversion="1"
       satellites_param="F,0,0,1,0,3,0,1 @ F,0,0,1,0,3,0,1 @ F,0,0,1,0,3,0,1 @ F,0,0,1,0,3,0,1"
       unit="px"
       method="auto"
       mode="F"
       radius="3"
       chamfer_steps="1"
       flexible="false"
       use_knot_distance="true"
       apply_no_radius="true"
       apply_with_radius="true"
       only_selected="false"
       hide_knots="false" />
    <inkscape:path-effect
       effect="fillet_chamfer"
       id="path-effect12669"
       is_visible="true"
       lpeversion="1"
       satellites_param="F,0,0,1,0,12.5,0,1 @ F,0,0,1,0,12.5,0,1 @ F,0,0,1,0,12.5,0,1 @ F,0,0,1,0,12.5,0,1 @ F,0,0,1,0,12.5,0,1 @ F,0,0,1,0,12.5,0,1 @ F,0,0,1,0,12.5,0,1 @ F,0,0,1,0,12.5,0,1 @ F,0,0,1,0,12.5,0,1 @ F,0,0,1,0,12.5,0,1 @ F,0,0,1,0,12.5,0,1"
       unit="px"
       method="auto"
       mode="F"
       radius="12.5"
       chamfer_steps="1"
       flexible="false"
       use_knot_distance="true"
       apply_no_radius="true"
       apply_with_radius="true"
       only_selected="false"
       hide_knots="false" />
    <inkscape:path-effect
       effect="fillet_chamfer"
       id="path-effect1396"
       is_visible="true"
       lpeversion="1"
       satellites_param="F,0,0,1,0,12.5,0,1 @ F,0,0,1,0,12.5,0,1 @ F,0,0,1,0,12.5,0,1 @ F,0,0,1,0,12.5,0,1"
       unit="px"
       method="auto"
       mode="F"
       radius="12.5"
       chamfer_steps="1"
       flexible="false"
       use_knot_distance="true"
       apply_no_radius="true"
       apply_with_radius="true"
       only_selected="false"
       hide_knots="false" />
    <inkscape:path-effect
       effect="fillet_chamfer"
       id="path-effect8376"
       is_visible="true"
       lpeversion="1"
       satellites_param="F,0,0,1,0,30,0,1 @ F,0,0,1,0,30,0,1 @ F,0,0,1,0,30,0,1 @ F,0,0,1,0,30,0,1"
       unit="px"
       method="auto"
       mode="F"
       radius="30"
       chamfer_steps="1"
       flexible="false"
       use_knot_distance="true"
       apply_no_radius="true"
       apply_with_radius="true"
       only_selected="false"
       hide_knots="false" />
    <filter
       style="color-interpolation-filters:sRGB;"
       inkscape:label="Blur"
       id="filter11775"
       x="-0.011320755"
       y="-0.021428571"
       width="1.0226415"
       height="1.0428571">
      <feGaussianBlur
         stdDeviation="0.5 0.5"
         result="blur"
         id="feGaussianBlur11773" />
    </filter>
  </defs>
  <g
     inkscape:label="Layer 1"
     inkscape:groupmode="layer"
     id="layer1"
     style="display:inline"
     sodipodi:insensitive="true">
    <path
       style="fill:#494949;fill-opacity:1;fill-rule:evenodd;stroke-width:0.965339"
       id="rect31"
       width="512"
       height="150"
       x="0"
       y="362"
       inkscape:path-effect="#path-effect1396"
       d="m 12.5,362 h 487 a 12.5,12.5 45 0 1 12.5,12.5 v 125 A 12.5,12.5 135 0 1 499.5,512 H 12.5 A 12.5,12.5 45 0 1 0,499.5 v -125 A 12.5,12.5 135 0 1 12.5,362 Z"
       sodipodi:type="rect" />
    <path
       id="rect1420"
       style="fill:#a4a4a4;fill-opacity:1;stroke-width:0.986708"
       d="m 106,74.5 0,95 a 12.5,12.5 45 0 0 12.5,12.5 h 205 a 12.5,12.5 45 0 1 12.5,12.5 l 0,89.59961 a 12.5,12.5 135 0 1 -12.5,12.5 h -255 a 12.5,12.5 135 0 0 -12.5,12.5 V 349.5 A 12.5,12.5 45 0 0 68.5,362 h 375 A 12.5,12.5 135 0 0 456,349.5 V 309.09961 194.5 74.5 A 12.5,12.5 45 0 0 443.5,62 l -95,0 h -230 A 12.5,12.5 135 0 0 106,74.5 Z"
       inkscape:original-d="M 106,62 V 182 H 336 V 296.59961 H 56 V 362 H 456 V 296.59961 182 62 H 336 Z"
       inkscape:path-effect="#path-effect12669" />
    <rect
       style="fill:#757575;fill-opacity:1;stroke-width:0.58562"
       id="rect1619-3"
       width="10"
       height="50"
       x="-192.00002"
       y="120"
       transform="rotate(-90)" />
    <rect
       style="fill:#757575;fill-opacity:1;stroke-width:0.740758"
       id="rect1619-3-5"
       width="10"
       height="80"
       x="-296.59991"
       y="105"
       transform="rotate(-90)" />
    <path
       style="fill:#757575;fill-opacity:1;stroke-width:0.969055"
       id="rect12815-3"
       width="60"
       height="18.585716"
       x="162.46289"
       y="150"
       inkscape:path-effect="#path-effect17427"
       d="m 165.46289,150 h 54 a 3,3 45 0 1 3,3 v 12.58572 a 3,3 135 0 1 -3,3 h -54 a 3,3 45 0 1 -3,-3 V 153 a 3,3 135 0 1 3,-3 z"
       sodipodi:type="rect" />
    <rect
       style="fill:#373737;fill-opacity:1;stroke-width:1.07881"
       id="rect14523-2"
       width="3"
       height="8"
       x="168.46289"
       y="152" />
    <rect
       style="fill:#373737;fill-opacity:1;stroke-width:1.07881"
       id="rect14523-2-4"
       width="3"
       height="8"
       x="183.46289"
       y="159" />
    <rect
       style="fill:#373737;fill-opacity:1;stroke-width:1.07881"
       id="rect14523-2-7"
       width="3"
       height="8"
       x="198.46289"
       y="152" />
    <rect
       style="fill:#373737;fill-opacity:1;stroke-width:1.07881"
       id="rect14523-2-4-8"
       width="3"
       height="8"
       x="213.46289"
       y="159" />
  </g>
  <g
     inkscape:groupmode="layer"
     id="layer6"
     inkscape:label="Layer 5"
     style="display:inline"
     sodipodi:insensitive="true" />
  <g
     inkscape:groupmode="layer"
     id="layer4"
     inkscape:label="Layer 4"
     style="display:inline"
     sodipodi:insensitive="true">
    <rect
       style="fill:#673ab7;fill-opacity:1;stroke-width:0.709819"
       id="rect14088"
       width="5"
       height="95.000008"
       x="145"
       y="97.000008" />
    <rect
       style="fill:#673ab7;fill-opacity:1;stroke-width:0.739093"
       id="rect14090"
       width="88.5"
       height="5"
       x="150"
       y="97.000008" />
  </g>
  <g
     inkscape:groupmode="layer"
     id="layer3"
     inkscape:label="Layer 3"
     style="display:inline" />
  <g
     inkscape:groupmode="layer"
     id="layer2"
     inkscape:label="Layer 2"
     style="display:inline" />
</svg>
