<?xml version="1.0" encoding="UTF-8" standalone="no"?>
<!-- Created with Inkscape (http://www.inkscape.org/) -->

<svg
   width="1315"
   height="985"
   viewBox="0 0 1315 985"
   version="1.1"
   id="svg4073"
   inkscape:version="1.1.2 (0a00cf5339, 2022-02-04)"
   sodipodi:docname="building-8x6-grid.svg"
   xmlns:inkscape="http://www.inkscape.org/namespaces/inkscape"
   xmlns:sodipodi="http://sodipodi.sourceforge.net/DTD/sodipodi-0.dtd"
   xmlns="http://www.w3.org/2000/svg"
   xmlns:svg="http://www.w3.org/2000/svg"
   xmlns:rdf="http://www.w3.org/1999/02/22-rdf-syntax-ns#"
   xmlns:cc="http://creativecommons.org/ns#"
   xmlns:dc="http://purl.org/dc/elements/1.1/">
  <defs
     id="defs4067">
    <inkscape:path-effect
       effect="fillet_chamfer"
       id="path-effect1425-96-39"
       is_visible="true"
       lpeversion="1"
       satellites_param="F,0,0,1,0,16,0,1 @ F,0,0,1,0,16,0,1 @ F,0,0,1,0,16,0,1 @ F,0,0,1,0,16,0,1"
       unit="px"
       method="auto"
       mode="F"
       radius="16"
       chamfer_steps="1"
       flexible="false"
       use_knot_distance="true"
       apply_no_radius="true"
       apply_with_radius="true"
       only_selected="false"
       hide_knots="false" />
    <inkscape:path-effect
       effect="fillet_chamfer"
       id="path-effect1425-96-39-3"
       is_visible="true"
       lpeversion="1"
       satellites_param="F,0,0,1,0,16,0,1 @ F,0,0,1,0,16,0,1 @ F,0,0,1,0,16,0,1 @ F,0,0,1,0,16,0,1"
       unit="px"
       method="auto"
       mode="F"
       radius="16"
       chamfer_steps="1"
       flexible="false"
       use_knot_distance="true"
       apply_no_radius="true"
       apply_with_radius="true"
       only_selected="false"
       hide_knots="false" />
    <inkscape:path-effect
       effect="fillet_chamfer"
       id="path-effect1425-96-39-6"
       is_visible="true"
       lpeversion="1"
       satellites_param="F,0,0,1,0,16,0,1 @ F,0,0,1,0,16,0,1 @ F,0,0,1,0,16,0,1 @ F,0,0,1,0,16,0,1"
       unit="px"
       method="auto"
       mode="F"
       radius="16"
       chamfer_steps="1"
       flexible="false"
       use_knot_distance="true"
       apply_no_radius="true"
       apply_with_radius="true"
       only_selected="false"
       hide_knots="false" />
    <inkscape:path-effect
       effect="fillet_chamfer"
       id="path-effect1425-96-39-9"
       is_visible="true"
       lpeversion="1"
       satellites_param="F,0,0,1,0,16,0,1 @ F,0,0,1,0,16,0,1 @ F,0,0,1,0,16,0,1 @ F,0,0,1,0,16,0,1"
       unit="px"
       method="auto"
       mode="F"
       radius="16"
       chamfer_steps="1"
       flexible="false"
       use_knot_distance="true"
       apply_no_radius="true"
       apply_with_radius="true"
       only_selected="false"
       hide_knots="false" />
    <inkscape:path-effect
       effect="fillet_chamfer"
       id="path-effect1425-96-39-2"
       is_visible="true"
       lpeversion="1"
       satellites_param="F,0,0,1,0,16,0,1 @ F,0,0,1,0,16,0,1 @ F,0,0,1,0,16,0,1 @ F,0,0,1,0,16,0,1"
       unit="px"
       method="auto"
       mode="F"
       radius="16"
       chamfer_steps="1"
       flexible="false"
       use_knot_distance="true"
       apply_no_radius="true"
       apply_with_radius="true"
       only_selected="false"
       hide_knots="false" />
    <inkscape:path-effect
       effect="fillet_chamfer"
       id="path-effect1425-96-39-0"
       is_visible="true"
       lpeversion="1"
       satellites_param="F,0,0,1,0,16,0,1 @ F,0,0,1,0,16,0,1 @ F,0,0,1,0,16,0,1 @ F,0,0,1,0,16,0,1"
       unit="px"
       method="auto"
       mode="F"
       radius="16"
       chamfer_steps="1"
       flexible="false"
       use_knot_distance="true"
       apply_no_radius="true"
       apply_with_radius="true"
       only_selected="false"
       hide_knots="false" />
    <inkscape:path-effect
       effect="fillet_chamfer"
       id="path-effect1425-96-39-36"
       is_visible="true"
       lpeversion="1"
       satellites_param="F,0,0,1,0,16,0,1 @ F,0,0,1,0,16,0,1 @ F,0,0,1,0,16,0,1 @ F,0,0,1,0,16,0,1"
       unit="px"
       method="auto"
       mode="F"
       radius="16"
       chamfer_steps="1"
       flexible="false"
       use_knot_distance="true"
       apply_no_radius="true"
       apply_with_radius="true"
       only_selected="false"
       hide_knots="false" />
    <inkscape:path-effect
       effect="fillet_chamfer"
       id="path-effect1425-96-39-62"
       is_visible="true"
       lpeversion="1"
       satellites_param="F,0,0,1,0,16,0,1 @ F,0,0,1,0,16,0,1 @ F,0,0,1,0,16,0,1 @ F,0,0,1,0,16,0,1"
       unit="px"
       method="auto"
       mode="F"
       radius="16"
       chamfer_steps="1"
       flexible="false"
       use_knot_distance="true"
       apply_no_radius="true"
       apply_with_radius="true"
       only_selected="false"
       hide_knots="false" />
    <inkscape:path-effect
       effect="fillet_chamfer"
       id="path-effect1425-96-39-1"
       is_visible="true"
       lpeversion="1"
       satellites_param="F,0,0,1,0,16,0,1 @ F,0,0,1,0,16,0,1 @ F,0,0,1,0,16,0,1 @ F,0,0,1,0,16,0,1"
       unit="px"
       method="auto"
       mode="F"
       radius="16"
       chamfer_steps="1"
       flexible="false"
       use_knot_distance="true"
       apply_no_radius="true"
       apply_with_radius="true"
       only_selected="false"
       hide_knots="false" />
    <inkscape:path-effect
       effect="fillet_chamfer"
       id="path-effect1425-96-39-3-8"
       is_visible="true"
       lpeversion="1"
       satellites_param="F,0,0,1,0,16,0,1 @ F,0,0,1,0,16,0,1 @ F,0,0,1,0,16,0,1 @ F,0,0,1,0,16,0,1"
       unit="px"
       method="auto"
       mode="F"
       radius="16"
       chamfer_steps="1"
       flexible="false"
       use_knot_distance="true"
       apply_no_radius="true"
       apply_with_radius="true"
       only_selected="false"
       hide_knots="false" />
    <inkscape:path-effect
       effect="fillet_chamfer"
       id="path-effect1425-96-39-6-7"
       is_visible="true"
       lpeversion="1"
       satellites_param="F,0,0,1,0,16,0,1 @ F,0,0,1,0,16,0,1 @ F,0,0,1,0,16,0,1 @ F,0,0,1,0,16,0,1"
       unit="px"
       method="auto"
       mode="F"
       radius="16"
       chamfer_steps="1"
       flexible="false"
       use_knot_distance="true"
       apply_no_radius="true"
       apply_with_radius="true"
       only_selected="false"
       hide_knots="false" />
    <inkscape:path-effect
       effect="fillet_chamfer"
       id="path-effect1425-96-39-9-9"
       is_visible="true"
       lpeversion="1"
       satellites_param="F,0,0,1,0,16,0,1 @ F,0,0,1,0,16,0,1 @ F,0,0,1,0,16,0,1 @ F,0,0,1,0,16,0,1"
       unit="px"
       method="auto"
       mode="F"
       radius="16"
       chamfer_steps="1"
       flexible="false"
       use_knot_distance="true"
       apply_no_radius="true"
       apply_with_radius="true"
       only_selected="false"
       hide_knots="false" />
    <inkscape:path-effect
       effect="fillet_chamfer"
       id="path-effect1425-96-39-2-2"
       is_visible="true"
       lpeversion="1"
       satellites_param="F,0,0,1,0,16,0,1 @ F,0,0,1,0,16,0,1 @ F,0,0,1,0,16,0,1 @ F,0,0,1,0,16,0,1"
       unit="px"
       method="auto"
       mode="F"
       radius="16"
       chamfer_steps="1"
       flexible="false"
       use_knot_distance="true"
       apply_no_radius="true"
       apply_with_radius="true"
       only_selected="false"
       hide_knots="false" />
    <inkscape:path-effect
       effect="fillet_chamfer"
       id="path-effect1425-96-39-0-0"
       is_visible="true"
       lpeversion="1"
       satellites_param="F,0,0,1,0,16,0,1 @ F,0,0,1,0,16,0,1 @ F,0,0,1,0,16,0,1 @ F,0,0,1,0,16,0,1"
       unit="px"
       method="auto"
       mode="F"
       radius="16"
       chamfer_steps="1"
       flexible="false"
       use_knot_distance="true"
       apply_no_radius="true"
       apply_with_radius="true"
       only_selected="false"
       hide_knots="false" />
    <inkscape:path-effect
       effect="fillet_chamfer"
       id="path-effect1425-96-39-36-2"
       is_visible="true"
       lpeversion="1"
       satellites_param="F,0,0,1,0,16,0,1 @ F,0,0,1,0,16,0,1 @ F,0,0,1,0,16,0,1 @ F,0,0,1,0,16,0,1"
       unit="px"
       method="auto"
       mode="F"
       radius="16"
       chamfer_steps="1"
       flexible="false"
       use_knot_distance="true"
       apply_no_radius="true"
       apply_with_radius="true"
       only_selected="false"
       hide_knots="false" />
    <inkscape:path-effect
       effect="fillet_chamfer"
       id="path-effect1425-96-39-62-3"
       is_visible="true"
       lpeversion="1"
       satellites_param="F,0,0,1,0,16,0,1 @ F,0,0,1,0,16,0,1 @ F,0,0,1,0,16,0,1 @ F,0,0,1,0,16,0,1"
       unit="px"
       method="auto"
       mode="F"
       radius="16"
       chamfer_steps="1"
       flexible="false"
       use_knot_distance="true"
       apply_no_radius="true"
       apply_with_radius="true"
       only_selected="false"
       hide_knots="false" />
    <inkscape:path-effect
       effect="fillet_chamfer"
       id="path-effect1425-96-39-61"
       is_visible="true"
       lpeversion="1"
       satellites_param="F,0,0,1,0,16,0,1 @ F,0,0,1,0,16,0,1 @ F,0,0,1,0,16,0,1 @ F,0,0,1,0,16,0,1"
       unit="px"
       method="auto"
       mode="F"
       radius="16"
       chamfer_steps="1"
       flexible="false"
       use_knot_distance="true"
       apply_no_radius="true"
       apply_with_radius="true"
       only_selected="false"
       hide_knots="false" />
    <inkscape:path-effect
       effect="fillet_chamfer"
       id="path-effect1425-96-39-3-2"
       is_visible="true"
       lpeversion="1"
       satellites_param="F,0,0,1,0,16,0,1 @ F,0,0,1,0,16,0,1 @ F,0,0,1,0,16,0,1 @ F,0,0,1,0,16,0,1"
       unit="px"
       method="auto"
       mode="F"
       radius="16"
       chamfer_steps="1"
       flexible="false"
       use_knot_distance="true"
       apply_no_radius="true"
       apply_with_radius="true"
       only_selected="false"
       hide_knots="false" />
    <inkscape:path-effect
       effect="fillet_chamfer"
       id="path-effect1425-96-39-6-9"
       is_visible="true"
       lpeversion="1"
       satellites_param="F,0,0,1,0,16,0,1 @ F,0,0,1,0,16,0,1 @ F,0,0,1,0,16,0,1 @ F,0,0,1,0,16,0,1"
       unit="px"
       method="auto"
       mode="F"
       radius="16"
       chamfer_steps="1"
       flexible="false"
       use_knot_distance="true"
       apply_no_radius="true"
       apply_with_radius="true"
       only_selected="false"
       hide_knots="false" />
    <inkscape:path-effect
       effect="fillet_chamfer"
       id="path-effect1425-96-39-9-3"
       is_visible="true"
       lpeversion="1"
       satellites_param="F,0,0,1,0,16,0,1 @ F,0,0,1,0,16,0,1 @ F,0,0,1,0,16,0,1 @ F,0,0,1,0,16,0,1"
       unit="px"
       method="auto"
       mode="F"
       radius="16"
       chamfer_steps="1"
       flexible="false"
       use_knot_distance="true"
       apply_no_radius="true"
       apply_with_radius="true"
       only_selected="false"
       hide_knots="false" />
    <inkscape:path-effect
       effect="fillet_chamfer"
       id="path-effect1425-96-39-2-1"
       is_visible="true"
       lpeversion="1"
       satellites_param="F,0,0,1,0,16,0,1 @ F,0,0,1,0,16,0,1 @ F,0,0,1,0,16,0,1 @ F,0,0,1,0,16,0,1"
       unit="px"
       method="auto"
       mode="F"
       radius="16"
       chamfer_steps="1"
       flexible="false"
       use_knot_distance="true"
       apply_no_radius="true"
       apply_with_radius="true"
       only_selected="false"
       hide_knots="false" />
    <inkscape:path-effect
       effect="fillet_chamfer"
       id="path-effect1425-96-39-0-9"
       is_visible="true"
       lpeversion="1"
       satellites_param="F,0,0,1,0,16,0,1 @ F,0,0,1,0,16,0,1 @ F,0,0,1,0,16,0,1 @ F,0,0,1,0,16,0,1"
       unit="px"
       method="auto"
       mode="F"
       radius="16"
       chamfer_steps="1"
       flexible="false"
       use_knot_distance="true"
       apply_no_radius="true"
       apply_with_radius="true"
       only_selected="false"
       hide_knots="false" />
    <inkscape:path-effect
       effect="fillet_chamfer"
       id="path-effect1425-96-39-36-4"
       is_visible="true"
       lpeversion="1"
       satellites_param="F,0,0,1,0,16,0,1 @ F,0,0,1,0,16,0,1 @ F,0,0,1,0,16,0,1 @ F,0,0,1,0,16,0,1"
       unit="px"
       method="auto"
       mode="F"
       radius="16"
       chamfer_steps="1"
       flexible="false"
       use_knot_distance="true"
       apply_no_radius="true"
       apply_with_radius="true"
       only_selected="false"
       hide_knots="false" />
    <inkscape:path-effect
       effect="fillet_chamfer"
       id="path-effect1425-96-39-62-7"
       is_visible="true"
       lpeversion="1"
       satellites_param="F,0,0,1,0,16,0,1 @ F,0,0,1,0,16,0,1 @ F,0,0,1,0,16,0,1 @ F,0,0,1,0,16,0,1"
       unit="px"
       method="auto"
       mode="F"
       radius="16"
       chamfer_steps="1"
       flexible="false"
       use_knot_distance="true"
       apply_no_radius="true"
       apply_with_radius="true"
       only_selected="false"
       hide_knots="false" />
    <inkscape:path-effect
       effect="fillet_chamfer"
       id="path-effect1425-96-39-63"
       is_visible="true"
       lpeversion="1"
       satellites_param="F,0,0,1,0,16,0,1 @ F,0,0,1,0,16,0,1 @ F,0,0,1,0,16,0,1 @ F,0,0,1,0,16,0,1"
       unit="px"
       method="auto"
       mode="F"
       radius="16"
       chamfer_steps="1"
       flexible="false"
       use_knot_distance="true"
       apply_no_radius="true"
       apply_with_radius="true"
       only_selected="false"
       hide_knots="false" />
    <inkscape:path-effect
       effect="fillet_chamfer"
       id="path-effect1425-96-39-3-20"
       is_visible="true"
       lpeversion="1"
       satellites_param="F,0,0,1,0,16,0,1 @ F,0,0,1,0,16,0,1 @ F,0,0,1,0,16,0,1 @ F,0,0,1,0,16,0,1"
       unit="px"
       method="auto"
       mode="F"
       radius="16"
       chamfer_steps="1"
       flexible="false"
       use_knot_distance="true"
       apply_no_radius="true"
       apply_with_radius="true"
       only_selected="false"
       hide_knots="false" />
    <inkscape:path-effect
       effect="fillet_chamfer"
       id="path-effect1425-96-39-6-6"
       is_visible="true"
       lpeversion="1"
       satellites_param="F,0,0,1,0,16,0,1 @ F,0,0,1,0,16,0,1 @ F,0,0,1,0,16,0,1 @ F,0,0,1,0,16,0,1"
       unit="px"
       method="auto"
       mode="F"
       radius="16"
       chamfer_steps="1"
       flexible="false"
       use_knot_distance="true"
       apply_no_radius="true"
       apply_with_radius="true"
       only_selected="false"
       hide_knots="false" />
    <inkscape:path-effect
       effect="fillet_chamfer"
       id="path-effect1425-96-39-9-1"
       is_visible="true"
       lpeversion="1"
       satellites_param="F,0,0,1,0,16,0,1 @ F,0,0,1,0,16,0,1 @ F,0,0,1,0,16,0,1 @ F,0,0,1,0,16,0,1"
       unit="px"
       method="auto"
       mode="F"
       radius="16"
       chamfer_steps="1"
       flexible="false"
       use_knot_distance="true"
       apply_no_radius="true"
       apply_with_radius="true"
       only_selected="false"
       hide_knots="false" />
    <inkscape:path-effect
       effect="fillet_chamfer"
       id="path-effect1425-96-39-2-5"
       is_visible="true"
       lpeversion="1"
       satellites_param="F,0,0,1,0,16,0,1 @ F,0,0,1,0,16,0,1 @ F,0,0,1,0,16,0,1 @ F,0,0,1,0,16,0,1"
       unit="px"
       method="auto"
       mode="F"
       radius="16"
       chamfer_steps="1"
       flexible="false"
       use_knot_distance="true"
       apply_no_radius="true"
       apply_with_radius="true"
       only_selected="false"
       hide_knots="false" />
    <inkscape:path-effect
       effect="fillet_chamfer"
       id="path-effect1425-96-39-0-5"
       is_visible="true"
       lpeversion="1"
       satellites_param="F,0,0,1,0,16,0,1 @ F,0,0,1,0,16,0,1 @ F,0,0,1,0,16,0,1 @ F,0,0,1,0,16,0,1"
       unit="px"
       method="auto"
       mode="F"
       radius="16"
       chamfer_steps="1"
       flexible="false"
       use_knot_distance="true"
       apply_no_radius="true"
       apply_with_radius="true"
       only_selected="false"
       hide_knots="false" />
    <inkscape:path-effect
       effect="fillet_chamfer"
       id="path-effect1425-96-39-36-47"
       is_visible="true"
       lpeversion="1"
       satellites_param="F,0,0,1,0,16,0,1 @ F,0,0,1,0,16,0,1 @ F,0,0,1,0,16,0,1 @ F,0,0,1,0,16,0,1"
       unit="px"
       method="auto"
       mode="F"
       radius="16"
       chamfer_steps="1"
       flexible="false"
       use_knot_distance="true"
       apply_no_radius="true"
       apply_with_radius="true"
       only_selected="false"
       hide_knots="false" />
    <inkscape:path-effect
       effect="fillet_chamfer"
       id="path-effect1425-96-39-62-6"
       is_visible="true"
       lpeversion="1"
       satellites_param="F,0,0,1,0,16,0,1 @ F,0,0,1,0,16,0,1 @ F,0,0,1,0,16,0,1 @ F,0,0,1,0,16,0,1"
       unit="px"
       method="auto"
       mode="F"
       radius="16"
       chamfer_steps="1"
       flexible="false"
       use_knot_distance="true"
       apply_no_radius="true"
       apply_with_radius="true"
       only_selected="false"
       hide_knots="false" />
    <inkscape:path-effect
       effect="fillet_chamfer"
       id="path-effect1425-96-39-7"
       is_visible="true"
       lpeversion="1"
       satellites_param="F,0,0,1,0,16,0,1 @ F,0,0,1,0,16,0,1 @ F,0,0,1,0,16,0,1 @ F,0,0,1,0,16,0,1"
       unit="px"
       method="auto"
       mode="F"
       radius="16"
       chamfer_steps="1"
       flexible="false"
       use_knot_distance="true"
       apply_no_radius="true"
       apply_with_radius="true"
       only_selected="false"
       hide_knots="false" />
    <inkscape:path-effect
       effect="fillet_chamfer"
       id="path-effect1425-96-39-3-4"
       is_visible="true"
       lpeversion="1"
       satellites_param="F,0,0,1,0,16,0,1 @ F,0,0,1,0,16,0,1 @ F,0,0,1,0,16,0,1 @ F,0,0,1,0,16,0,1"
       unit="px"
       method="auto"
       mode="F"
       radius="16"
       chamfer_steps="1"
       flexible="false"
       use_knot_distance="true"
       apply_no_radius="true"
       apply_with_radius="true"
       only_selected="false"
       hide_knots="false" />
    <inkscape:path-effect
       effect="fillet_chamfer"
       id="path-effect1425-96-39-6-4"
       is_visible="true"
       lpeversion="1"
       satellites_param="F,0,0,1,0,16,0,1 @ F,0,0,1,0,16,0,1 @ F,0,0,1,0,16,0,1 @ F,0,0,1,0,16,0,1"
       unit="px"
       method="auto"
       mode="F"
       radius="16"
       chamfer_steps="1"
       flexible="false"
       use_knot_distance="true"
       apply_no_radius="true"
       apply_with_radius="true"
       only_selected="false"
       hide_knots="false" />
    <inkscape:path-effect
       effect="fillet_chamfer"
       id="path-effect1425-96-39-9-30"
       is_visible="true"
       lpeversion="1"
       satellites_param="F,0,0,1,0,16,0,1 @ F,0,0,1,0,16,0,1 @ F,0,0,1,0,16,0,1 @ F,0,0,1,0,16,0,1"
       unit="px"
       method="auto"
       mode="F"
       radius="16"
       chamfer_steps="1"
       flexible="false"
       use_knot_distance="true"
       apply_no_radius="true"
       apply_with_radius="true"
       only_selected="false"
       hide_knots="false" />
    <inkscape:path-effect
       effect="fillet_chamfer"
       id="path-effect1425-96-39-2-7"
       is_visible="true"
       lpeversion="1"
       satellites_param="F,0,0,1,0,16,0,1 @ F,0,0,1,0,16,0,1 @ F,0,0,1,0,16,0,1 @ F,0,0,1,0,16,0,1"
       unit="px"
       method="auto"
       mode="F"
       radius="16"
       chamfer_steps="1"
       flexible="false"
       use_knot_distance="true"
       apply_no_radius="true"
       apply_with_radius="true"
       only_selected="false"
       hide_knots="false" />
    <inkscape:path-effect
       effect="fillet_chamfer"
       id="path-effect1425-96-39-0-8"
       is_visible="true"
       lpeversion="1"
       satellites_param="F,0,0,1,0,16,0,1 @ F,0,0,1,0,16,0,1 @ F,0,0,1,0,16,0,1 @ F,0,0,1,0,16,0,1"
       unit="px"
       method="auto"
       mode="F"
       radius="16"
       chamfer_steps="1"
       flexible="false"
       use_knot_distance="true"
       apply_no_radius="true"
       apply_with_radius="true"
       only_selected="false"
       hide_knots="false" />
    <inkscape:path-effect
       effect="fillet_chamfer"
       id="path-effect1425-96-39-36-6"
       is_visible="true"
       lpeversion="1"
       satellites_param="F,0,0,1,0,16,0,1 @ F,0,0,1,0,16,0,1 @ F,0,0,1,0,16,0,1 @ F,0,0,1,0,16,0,1"
       unit="px"
       method="auto"
       mode="F"
       radius="16"
       chamfer_steps="1"
       flexible="false"
       use_knot_distance="true"
       apply_no_radius="true"
       apply_with_radius="true"
       only_selected="false"
       hide_knots="false" />
    <inkscape:path-effect
       effect="fillet_chamfer"
       id="path-effect1425-96-39-62-8"
       is_visible="true"
       lpeversion="1"
       satellites_param="F,0,0,1,0,16,0,1 @ F,0,0,1,0,16,0,1 @ F,0,0,1,0,16,0,1 @ F,0,0,1,0,16,0,1"
       unit="px"
       method="auto"
       mode="F"
       radius="16"
       chamfer_steps="1"
       flexible="false"
       use_knot_distance="true"
       apply_no_radius="true"
       apply_with_radius="true"
       only_selected="false"
       hide_knots="false" />
    <inkscape:path-effect
       effect="fillet_chamfer"
       id="path-effect1425-96-39-92"
       is_visible="true"
       lpeversion="1"
       satellites_param="F,0,0,1,0,16,0,1 @ F,0,0,1,0,16,0,1 @ F,0,0,1,0,16,0,1 @ F,0,0,1,0,16,0,1"
       unit="px"
       method="auto"
       mode="F"
       radius="16"
       chamfer_steps="1"
       flexible="false"
       use_knot_distance="true"
       apply_no_radius="true"
       apply_with_radius="true"
       only_selected="false"
       hide_knots="false" />
    <inkscape:path-effect
       effect="fillet_chamfer"
       id="path-effect1425-96-39-3-6"
       is_visible="true"
       lpeversion="1"
       satellites_param="F,0,0,1,0,16,0,1 @ F,0,0,1,0,16,0,1 @ F,0,0,1,0,16,0,1 @ F,0,0,1,0,16,0,1"
       unit="px"
       method="auto"
       mode="F"
       radius="16"
       chamfer_steps="1"
       flexible="false"
       use_knot_distance="true"
       apply_no_radius="true"
       apply_with_radius="true"
       only_selected="false"
       hide_knots="false" />
    <inkscape:path-effect
       effect="fillet_chamfer"
       id="path-effect1425-96-39-6-64"
       is_visible="true"
       lpeversion="1"
       satellites_param="F,0,0,1,0,16,0,1 @ F,0,0,1,0,16,0,1 @ F,0,0,1,0,16,0,1 @ F,0,0,1,0,16,0,1"
       unit="px"
       method="auto"
       mode="F"
       radius="16"
       chamfer_steps="1"
       flexible="false"
       use_knot_distance="true"
       apply_no_radius="true"
       apply_with_radius="true"
       only_selected="false"
       hide_knots="false" />
    <inkscape:path-effect
       effect="fillet_chamfer"
       id="path-effect1425-96-39-9-95"
       is_visible="true"
       lpeversion="1"
       satellites_param="F,0,0,1,0,16,0,1 @ F,0,0,1,0,16,0,1 @ F,0,0,1,0,16,0,1 @ F,0,0,1,0,16,0,1"
       unit="px"
       method="auto"
       mode="F"
       radius="16"
       chamfer_steps="1"
       flexible="false"
       use_knot_distance="true"
       apply_no_radius="true"
       apply_with_radius="true"
       only_selected="false"
       hide_knots="false" />
    <inkscape:path-effect
       effect="fillet_chamfer"
       id="path-effect1425-96-39-2-0"
       is_visible="true"
       lpeversion="1"
       satellites_param="F,0,0,1,0,16,0,1 @ F,0,0,1,0,16,0,1 @ F,0,0,1,0,16,0,1 @ F,0,0,1,0,16,0,1"
       unit="px"
       method="auto"
       mode="F"
       radius="16"
       chamfer_steps="1"
       flexible="false"
       use_knot_distance="true"
       apply_no_radius="true"
       apply_with_radius="true"
       only_selected="false"
       hide_knots="false" />
    <inkscape:path-effect
       effect="fillet_chamfer"
       id="path-effect1425-96-39-0-4"
       is_visible="true"
       lpeversion="1"
       satellites_param="F,0,0,1,0,16,0,1 @ F,0,0,1,0,16,0,1 @ F,0,0,1,0,16,0,1 @ F,0,0,1,0,16,0,1"
       unit="px"
       method="auto"
       mode="F"
       radius="16"
       chamfer_steps="1"
       flexible="false"
       use_knot_distance="true"
       apply_no_radius="true"
       apply_with_radius="true"
       only_selected="false"
       hide_knots="false" />
    <inkscape:path-effect
       effect="fillet_chamfer"
       id="path-effect1425-96-39-36-8"
       is_visible="true"
       lpeversion="1"
       satellites_param="F,0,0,1,0,16,0,1 @ F,0,0,1,0,16,0,1 @ F,0,0,1,0,16,0,1 @ F,0,0,1,0,16,0,1"
       unit="px"
       method="auto"
       mode="F"
       radius="16"
       chamfer_steps="1"
       flexible="false"
       use_knot_distance="true"
       apply_no_radius="true"
       apply_with_radius="true"
       only_selected="false"
       hide_knots="false" />
    <inkscape:path-effect
       effect="fillet_chamfer"
       id="path-effect1425-96-39-62-71"
       is_visible="true"
       lpeversion="1"
       satellites_param="F,0,0,1,0,16,0,1 @ F,0,0,1,0,16,0,1 @ F,0,0,1,0,16,0,1 @ F,0,0,1,0,16,0,1"
       unit="px"
       method="auto"
       mode="F"
       radius="16"
       chamfer_steps="1"
       flexible="false"
       use_knot_distance="true"
       apply_no_radius="true"
       apply_with_radius="true"
       only_selected="false"
       hide_knots="false" />
  </defs>
  <sodipodi:namedview
     id="base"
     pagecolor="#ffffff"
     bordercolor="#666666"
     borderopacity="1.0"
     inkscape:pageopacity="0.0"
     inkscape:pageshadow="2"
     inkscape:zoom="0.35"
     inkscape:cx="781.42857"
     inkscape:cy="830"
     inkscape:document-units="px"
     inkscape:current-layer="layer1"
     inkscape:pagecheckerboard="0"
     showgrid="false"
     width="1315mm"
     units="px"
     inkscape:window-width="1920"
     inkscape:window-height="1012"
     inkscape:window-x="0"
     inkscape:window-y="0"
     inkscape:window-maximized="1" />
  <metadata
     id="metadata4070">
    <rdf:RDF>
      <cc:Work
         rdf:about="">
        <dc:format>image/svg+xml</dc:format>
        <dc:type
           rdf:resource="http://purl.org/dc/dcmitype/StillImage" />
      </cc:Work>
    </rdf:RDF>
  </metadata>
  <g
     inkscape:label="Layer 1"
     inkscape:groupmode="layer"
     id="layer1">
    <g
       id="g403">
      <path
         style="fill:#999999;stroke:none;stroke-width:12"
         id="rect972-0-55"
         width="160"
         height="160"
         x="-4.4921876e-06"
         y="4.5312498e-07"
         sodipodi:type="rect"
         inkscape:path-effect="#path-effect1425-96-39"
         d="m 15.999996,4.5312498e-7 128.000004,0 A 16,16 45 0 1 160,16 v 128 a 16,16 135 0 1 -16,16 H 15.999996 A 16,16 45 0 1 -4.4921876e-6,144 V 16 A 16,16 135 0 1 15.999996,4.5312498e-7 Z" />
      <path
         style="fill:#999999;stroke:none;stroke-width:12"
         id="rect972-0-55-5"
         width="160"
         height="160"
         x="165"
         y="4.5312498e-07"
         sodipodi:type="rect"
         inkscape:path-effect="#path-effect1425-96-39-3"
         d="m 181,4.5312498e-7 128,0 A 16,16 45 0 1 325,16 v 128 a 16,16 135 0 1 -16,16 H 181 A 16,16 45 0 1 165,144 V 16 A 16,16 135 0 1 181,4.5312498e-7 Z" />
      <path
         style="fill:#999999;stroke:none;stroke-width:12"
         id="rect972-0-55-2"
         width="160"
         height="160"
         x="990"
         y="4.5312498e-07"
         sodipodi:type="rect"
         inkscape:path-effect="#path-effect1425-96-39-6"
         d="m 1006,4.5312498e-7 128,0 A 16,16 45 0 1 1150,16 v 128 a 16,16 135 0 1 -16,16 H 1006 A 16,16 45 0 1 990,144 V 16 A 16,16 135 0 1 1006,4.5312498e-7 Z" />
      <path
         style="fill:#999999;stroke:none;stroke-width:12"
         id="rect972-0-55-1"
         width="160"
         height="160"
         x="825"
         y="4.5312498e-07"
         sodipodi:type="rect"
         inkscape:path-effect="#path-effect1425-96-39-9"
         d="m 841,4.5312498e-7 128,0 A 16,16 45 0 1 985,16 v 128 a 16,16 135 0 1 -16,16 H 841 A 16,16 45 0 1 825,144 V 16 A 16,16 135 0 1 841,4.5312498e-7 Z" />
      <path
         style="fill:#999999;stroke:none;stroke-width:12"
         id="rect972-0-55-7"
         width="160"
         height="160"
         x="1155"
         y="4.5312498e-07"
         sodipodi:type="rect"
         inkscape:path-effect="#path-effect1425-96-39-2"
         d="m 1171,4.5312498e-7 128,0 A 16,16 45 0 1 1315,16 v 128 a 16,16 135 0 1 -16,16 h -128 a 16,16 45 0 1 -16,-16 V 16 A 16,16 135 0 1 1171,4.5312498e-7 Z" />
      <path
         style="fill:#999999;stroke:none;stroke-width:12"
         id="rect972-0-55-9"
         width="160"
         height="160"
         x="-4.4921876e-06"
         y="165"
         sodipodi:type="rect"
         inkscape:path-effect="#path-effect1425-96-39-0"
         d="M 15.999996,165 H 144 a 16,16 45 0 1 16,16 v 128 a 16,16 135 0 1 -16,16 H 15.999996 A 16,16 45 0 1 -4.4921876e-6,309 V 181 A 16,16 135 0 1 15.999996,165 Z" />
      <path
         style="fill:#999999;stroke:none;stroke-width:12"
         id="rect972-0-55-0"
         width="160"
         height="160"
         x="165"
         y="165"
         sodipodi:type="rect"
         inkscape:path-effect="#path-effect1425-96-39-36"
         d="m 181,165 h 128 a 16,16 45 0 1 16,16 v 128 a 16,16 135 0 1 -16,16 H 181 A 16,16 45 0 1 165,309 V 181 a 16,16 135 0 1 16,-16 z" />
      <path
         style="fill:#999999;stroke:none;stroke-width:12"
         id="rect972-0-55-6"
         width="160"
         height="160"
         x="330"
         y="165"
         sodipodi:type="rect"
         inkscape:path-effect="#path-effect1425-96-39-62"
         d="m 346,165 h 128 a 16,16 45 0 1 16,16 v 128 a 16,16 135 0 1 -16,16 H 346 A 16,16 45 0 1 330,309 V 181 a 16,16 135 0 1 16,-16 z" />
      <path
         style="fill:#999999;stroke:none;stroke-width:12"
         id="rect972-0-55-75"
         width="160"
         height="160"
         x="330"
         y="4.5312498e-07"
         sodipodi:type="rect"
         inkscape:path-effect="#path-effect1425-96-39-1"
         d="m 346,4.5312498e-7 128,0 A 16,16 45 0 1 490,16 v 128 a 16,16 135 0 1 -16,16 H 346 A 16,16 45 0 1 330,144 V 16 A 16,16 135 0 1 346,4.5312498e-7 Z" />
      <path
         style="fill:#999999;stroke:none;stroke-width:12"
         id="rect972-0-55-5-9"
         width="160"
         height="160"
         x="495"
         y="4.5312498e-07"
         sodipodi:type="rect"
         inkscape:path-effect="#path-effect1425-96-39-3-8"
         d="m 511,4.5312498e-7 128,0 A 16,16 45 0 1 655,16 v 128 a 16,16 135 0 1 -16,16 H 511 A 16,16 45 0 1 495,144 V 16 A 16,16 135 0 1 511,4.5312498e-7 Z" />
      <path
         style="fill:#999999;stroke:none;stroke-width:12"
         id="rect972-0-55-2-2"
         width="160"
         height="160"
         x="660"
         y="165"
         sodipodi:type="rect"
         inkscape:path-effect="#path-effect1425-96-39-6-7"
         d="m 676,165 h 128 a 16,16 45 0 1 16,16 v 128 a 16,16 135 0 1 -16,16 H 676 A 16,16 45 0 1 660,309 V 181 a 16,16 135 0 1 16,-16 z" />
      <path
         style="fill:#999999;stroke:none;stroke-width:12"
         id="rect972-0-55-1-2"
         width="160"
         height="160"
         x="825"
         y="165"
         sodipodi:type="rect"
         inkscape:path-effect="#path-effect1425-96-39-9-9"
         d="m 841,165 h 128 a 16,16 45 0 1 16,16 v 128 a 16,16 135 0 1 -16,16 H 841 A 16,16 45 0 1 825,309 V 181 a 16,16 135 0 1 16,-16 z" />
      <path
         style="fill:#999999;stroke:none;stroke-width:12"
         id="rect972-0-55-7-8"
         width="160"
         height="160"
         x="990"
         y="165"
         sodipodi:type="rect"
         inkscape:path-effect="#path-effect1425-96-39-2-2"
         d="m 1006,165 h 128 a 16,16 45 0 1 16,16 v 128 a 16,16 135 0 1 -16,16 H 1006 A 16,16 45 0 1 990,309 V 181 a 16,16 135 0 1 16,-16 z" />
      <path
         style="fill:#999999;stroke:none;stroke-width:12"
         id="rect972-0-55-9-9"
         width="160"
         height="160"
         x="1155"
         y="165"
         sodipodi:type="rect"
         inkscape:path-effect="#path-effect1425-96-39-0-0"
         d="m 1171,165 h 128 a 16,16 45 0 1 16,16 v 128 a 16,16 135 0 1 -16,16 h -128 a 16,16 45 0 1 -16,-16 V 181 a 16,16 135 0 1 16,-16 z" />
      <path
         style="fill:#999999;stroke:none;stroke-width:12"
         id="rect972-0-55-0-7"
         width="160"
         height="160"
         x="-4.4921876e-06"
         y="330"
         sodipodi:type="rect"
         inkscape:path-effect="#path-effect1425-96-39-36-2"
         d="M 15.999996,330 H 144 a 16,16 45 0 1 16,16 v 128 a 16,16 135 0 1 -16,16 H 15.999996 A 16,16 45 0 1 -4.4921876e-6,474 V 346 A 16,16 135 0 1 15.999996,330 Z" />
      <path
         style="fill:#999999;stroke:none;stroke-width:12"
         id="rect972-0-55-6-3"
         width="160"
         height="160"
         x="165"
         y="330"
         sodipodi:type="rect"
         inkscape:path-effect="#path-effect1425-96-39-62-3"
         d="m 181,330 h 128 a 16,16 45 0 1 16,16 v 128 a 16,16 135 0 1 -16,16 H 181 A 16,16 45 0 1 165,474 V 346 a 16,16 135 0 1 16,-16 z" />
      <path
         style="fill:#999999;stroke:none;stroke-width:12"
         id="rect972-0-55-8"
         width="160"
         height="160"
         x="660"
         y="4.5312498e-07"
         sodipodi:type="rect"
         inkscape:path-effect="#path-effect1425-96-39-61"
         d="m 676,4.5312498e-7 128,0 A 16,16 45 0 1 820,16 v 128 a 16,16 135 0 1 -16,16 H 676 A 16,16 45 0 1 660,144 V 16 A 16,16 135 0 1 676,4.5312498e-7 Z" />
      <path
         style="fill:#999999;stroke:none;stroke-width:12"
         id="rect972-0-55-5-4"
         width="160"
         height="160"
         x="495"
         y="165"
         sodipodi:type="rect"
         inkscape:path-effect="#path-effect1425-96-39-3-2"
         d="m 511,165 h 128 a 16,16 45 0 1 16,16 v 128 a 16,16 135 0 1 -16,16 H 511 A 16,16 45 0 1 495,309 V 181 a 16,16 135 0 1 16,-16 z" />
      <path
         style="fill:#999999;stroke:none;stroke-width:12"
         id="rect972-0-55-2-5"
         width="160"
         height="160"
         x="825"
         y="330"
         sodipodi:type="rect"
         inkscape:path-effect="#path-effect1425-96-39-6-9"
         d="m 841,330 h 128 a 16,16 45 0 1 16,16 v 128 a 16,16 135 0 1 -16,16 H 841 A 16,16 45 0 1 825,474 V 346 a 16,16 135 0 1 16,-16 z" />
      <path
         style="fill:#999999;stroke:none;stroke-width:12"
         id="rect972-0-55-1-0"
         width="160"
         height="160"
         x="660"
         y="330"
         sodipodi:type="rect"
         inkscape:path-effect="#path-effect1425-96-39-9-3"
         d="m 676,330 h 128 a 16,16 45 0 1 16,16 v 128 a 16,16 135 0 1 -16,16 H 676 A 16,16 45 0 1 660,474 V 346 a 16,16 135 0 1 16,-16 z" />
      <path
         style="fill:#999999;stroke:none;stroke-width:12"
         id="rect972-0-55-7-3"
         width="160"
         height="160"
         x="1155"
         y="330"
         sodipodi:type="rect"
         inkscape:path-effect="#path-effect1425-96-39-2-1"
         d="m 1171,330 h 128 a 16,16 45 0 1 16,16 v 128 a 16,16 135 0 1 -16,16 h -128 a 16,16 45 0 1 -16,-16 V 346 a 16,16 135 0 1 16,-16 z" />
      <path
         style="fill:#999999;stroke:none;stroke-width:12"
         id="rect972-0-55-9-6"
         width="160"
         height="160"
         x="990"
         y="330"
         sodipodi:type="rect"
         inkscape:path-effect="#path-effect1425-96-39-0-9"
         d="m 1006,330 h 128 a 16,16 45 0 1 16,16 v 128 a 16,16 135 0 1 -16,16 H 1006 A 16,16 45 0 1 990,474 V 346 a 16,16 135 0 1 16,-16 z" />
      <path
         style="fill:#999999;stroke:none;stroke-width:12"
         id="rect972-0-55-0-1"
         width="160"
         height="160"
         x="-4.4921876e-06"
         y="495"
         sodipodi:type="rect"
         inkscape:path-effect="#path-effect1425-96-39-36-4"
         d="M 15.999996,495 H 144 a 16,16 45 0 1 16,16 v 128 a 16,16 135 0 1 -16,16 H 15.999996 A 16,16 45 0 1 -4.4921876e-6,639 V 511 A 16,16 135 0 1 15.999996,495 Z" />
      <path
         style="fill:#999999;stroke:none;stroke-width:12"
         id="rect972-0-55-6-0"
         width="160"
         height="160"
         x="165"
         y="495"
         sodipodi:type="rect"
         inkscape:path-effect="#path-effect1425-96-39-62-7"
         d="m 181,495 h 128 a 16,16 45 0 1 16,16 v 128 a 16,16 135 0 1 -16,16 H 181 A 16,16 45 0 1 165,639 V 511 a 16,16 135 0 1 16,-16 z" />
      <path
         style="fill:#999999;stroke:none;stroke-width:12"
         id="rect972-0-55-56"
         width="160"
         height="160"
         x="330"
         y="330"
         sodipodi:type="rect"
         inkscape:path-effect="#path-effect1425-96-39-63"
         d="m 346,330 h 128 a 16,16 45 0 1 16,16 v 128 a 16,16 135 0 1 -16,16 H 346 A 16,16 45 0 1 330,474 V 346 a 16,16 135 0 1 16,-16 z" />
      <path
         style="fill:#999999;stroke:none;stroke-width:12"
         id="rect972-0-55-5-93"
         width="160"
         height="160"
         x="495"
         y="330"
         sodipodi:type="rect"
         inkscape:path-effect="#path-effect1425-96-39-3-20"
         d="m 511,330 h 128 a 16,16 45 0 1 16,16 v 128 a 16,16 135 0 1 -16,16 H 511 A 16,16 45 0 1 495,474 V 346 a 16,16 135 0 1 16,-16 z" />
      <path
         style="fill:#999999;stroke:none;stroke-width:12"
         id="rect972-0-55-2-7"
         width="160"
         height="160"
         x="660"
         y="495"
         sodipodi:type="rect"
         inkscape:path-effect="#path-effect1425-96-39-6-6"
         d="m 676,495 h 128 a 16,16 45 0 1 16,16 v 128 a 16,16 135 0 1 -16,16 H 676 A 16,16 45 0 1 660,639 V 511 a 16,16 135 0 1 16,-16 z" />
      <path
         style="fill:#999999;stroke:none;stroke-width:12"
         id="rect972-0-55-1-4"
         width="160"
         height="160"
         x="495"
         y="495"
         sodipodi:type="rect"
         inkscape:path-effect="#path-effect1425-96-39-9-1"
         d="m 511,495 h 128 a 16,16 45 0 1 16,16 v 128 a 16,16 135 0 1 -16,16 H 511 A 16,16 45 0 1 495,639 V 511 a 16,16 135 0 1 16,-16 z" />
      <path
         style="fill:#999999;stroke:none;stroke-width:12"
         id="rect972-0-55-7-5"
         width="160"
         height="160"
         x="825"
         y="495"
         sodipodi:type="rect"
         inkscape:path-effect="#path-effect1425-96-39-2-5"
         d="m 841,495 h 128 a 16,16 45 0 1 16,16 v 128 a 16,16 135 0 1 -16,16 H 841 A 16,16 45 0 1 825,639 V 511 a 16,16 135 0 1 16,-16 z" />
      <path
         style="fill:#999999;stroke:none;stroke-width:12"
         id="rect972-0-55-9-2"
         width="160"
         height="160"
         x="990"
         y="495"
         sodipodi:type="rect"
         inkscape:path-effect="#path-effect1425-96-39-0-5"
         d="m 1006,495 h 128 a 16,16 45 0 1 16,16 v 128 a 16,16 135 0 1 -16,16 H 1006 A 16,16 45 0 1 990,639 V 511 a 16,16 135 0 1 16,-16 z" />
      <path
         style="fill:#999999;stroke:none;stroke-width:12"
         id="rect972-0-55-0-5"
         width="160"
         height="160"
         x="1155"
         y="495"
         sodipodi:type="rect"
         inkscape:path-effect="#path-effect1425-96-39-36-47"
         d="m 1171,495 h 128 a 16,16 45 0 1 16,16 v 128 a 16,16 135 0 1 -16,16 h -128 a 16,16 45 0 1 -16,-16 V 511 a 16,16 135 0 1 16,-16 z" />
      <path
         style="fill:#999999;stroke:none;stroke-width:12"
         id="rect972-0-55-6-4"
         width="160"
         height="160"
         x="165"
         y="660"
         sodipodi:type="rect"
         inkscape:path-effect="#path-effect1425-96-39-62-6"
         d="m 181,660 h 128 a 16,16 45 0 1 16,16 v 128 a 16,16 135 0 1 -16,16 H 181 A 16,16 45 0 1 165,804 V 676 a 16,16 135 0 1 16,-16 z" />
      <path
         style="fill:#999999;stroke:none;stroke-width:12"
         id="rect972-0-55-84"
         width="160"
         height="160"
         x="330"
         y="495"
         sodipodi:type="rect"
         inkscape:path-effect="#path-effect1425-96-39-7"
         d="m 346,495 h 128 a 16,16 45 0 1 16,16 v 128 a 16,16 135 0 1 -16,16 H 346 A 16,16 45 0 1 330,639 V 511 a 16,16 135 0 1 16,-16 z" />
      <path
         style="fill:#999999;stroke:none;stroke-width:12"
         id="rect972-0-55-5-3"
         width="160"
         height="160"
         x="-4.4921876e-06"
         y="660"
         sodipodi:type="rect"
         inkscape:path-effect="#path-effect1425-96-39-3-4"
         d="M 15.999996,660 H 144 a 16,16 45 0 1 16,16 v 128 a 16,16 135 0 1 -16,16 H 15.999996 A 16,16 45 0 1 -4.4921876e-6,804 V 676 A 16,16 135 0 1 15.999996,660 Z" />
      <path
         style="fill:#999999;stroke:none;stroke-width:12"
         id="rect972-0-55-2-1"
         width="160"
         height="160"
         x="660"
         y="660"
         sodipodi:type="rect"
         inkscape:path-effect="#path-effect1425-96-39-6-4"
         d="m 676,660 h 128 a 16,16 45 0 1 16,16 v 128 a 16,16 135 0 1 -16,16 H 676 A 16,16 45 0 1 660,804 V 676 a 16,16 135 0 1 16,-16 z" />
      <path
         style="fill:#999999;stroke:none;stroke-width:12"
         id="rect972-0-55-1-49"
         width="160"
         height="160"
         x="495"
         y="660"
         sodipodi:type="rect"
         inkscape:path-effect="#path-effect1425-96-39-9-30"
         d="m 511,660 h 128 a 16,16 45 0 1 16,16 v 128 a 16,16 135 0 1 -16,16 H 511 A 16,16 45 0 1 495,804 V 676 a 16,16 135 0 1 16,-16 z" />
      <path
         style="fill:#999999;stroke:none;stroke-width:12"
         id="rect972-0-55-7-2"
         width="160"
         height="160"
         x="990"
         y="660"
         sodipodi:type="rect"
         inkscape:path-effect="#path-effect1425-96-39-2-7"
         d="m 1006,660 h 128 a 16,16 45 0 1 16,16 v 128 a 16,16 135 0 1 -16,16 H 1006 A 16,16 45 0 1 990,804 V 676 a 16,16 135 0 1 16,-16 z" />
      <path
         style="fill:#999999;stroke:none;stroke-width:12"
         id="rect972-0-55-9-0"
         width="160"
         height="160"
         x="825"
         y="660"
         sodipodi:type="rect"
         inkscape:path-effect="#path-effect1425-96-39-0-8"
         d="m 841,660 h 128 a 16,16 45 0 1 16,16 v 128 a 16,16 135 0 1 -16,16 H 841 A 16,16 45 0 1 825,804 V 676 a 16,16 135 0 1 16,-16 z" />
      <path
         style="fill:#999999;stroke:none;stroke-width:12"
         id="rect972-0-55-0-6"
         width="160"
         height="160"
         x="1155"
         y="660"
         sodipodi:type="rect"
         inkscape:path-effect="#path-effect1425-96-39-36-6"
         d="m 1171,660 h 128 a 16,16 45 0 1 16,16 v 128 a 16,16 135 0 1 -16,16 h -128 a 16,16 45 0 1 -16,-16 V 676 a 16,16 135 0 1 16,-16 z" />
      <path
         style="fill:#999999;stroke:none;stroke-width:12"
         id="rect972-0-55-6-8"
         width="160"
         height="160"
         x="165"
         y="825"
         sodipodi:type="rect"
         inkscape:path-effect="#path-effect1425-96-39-62-8"
         d="m 181,825 h 128 a 16,16 45 0 1 16,16 v 128 a 16,16 135 0 1 -16,16 H 181 A 16,16 45 0 1 165,969 V 841 a 16,16 135 0 1 16,-16 z" />
      <path
         style="fill:#999999;stroke:none;stroke-width:12"
         id="rect972-0-55-72"
         width="160"
         height="160"
         x="330"
         y="660"
         sodipodi:type="rect"
         inkscape:path-effect="#path-effect1425-96-39-92"
         d="m 346,660 h 128 a 16,16 45 0 1 16,16 v 128 a 16,16 135 0 1 -16,16 H 346 A 16,16 45 0 1 330,804 V 676 a 16,16 135 0 1 16,-16 z" />
      <path
         style="fill:#999999;stroke:none;stroke-width:12"
         id="rect972-0-55-5-7"
         width="160"
         height="160"
         x="-4.4921876e-06"
         y="825"
         sodipodi:type="rect"
         inkscape:path-effect="#path-effect1425-96-39-3-6"
         d="M 15.999996,825 H 144 a 16,16 45 0 1 16,16 v 128 a 16,16 135 0 1 -16,16 H 15.999996 A 16,16 45 0 1 -4.4921876e-6,969 V 841 A 16,16 135 0 1 15.999996,825 Z" />
      <path
         style="fill:#999999;stroke:none;stroke-width:12"
         id="rect972-0-55-2-22"
         width="160"
         height="160"
         x="330"
         y="825"
         sodipodi:type="rect"
         inkscape:path-effect="#path-effect1425-96-39-6-64"
         d="m 346,825 h 128 a 16,16 45 0 1 16,16 v 128 a 16,16 135 0 1 -16,16 H 346 A 16,16 45 0 1 330,969 V 841 a 16,16 135 0 1 16,-16 z" />
      <path
         style="fill:#999999;stroke:none;stroke-width:12"
         id="rect972-0-55-1-6"
         width="160"
         height="160"
         x="495"
         y="825"
         sodipodi:type="rect"
         inkscape:path-effect="#path-effect1425-96-39-9-95"
         d="m 511,825 h 128 a 16,16 45 0 1 16,16 v 128 a 16,16 135 0 1 -16,16 H 511 A 16,16 45 0 1 495,969 V 841 a 16,16 135 0 1 16,-16 z" />
      <path
         style="fill:#999999;stroke:none;stroke-width:12"
         id="rect972-0-55-7-1"
         width="160"
         height="160"
         x="825"
         y="825"
         sodipodi:type="rect"
         inkscape:path-effect="#path-effect1425-96-39-2-0"
         d="m 841,825 h 128 a 16,16 45 0 1 16,16 v 128 a 16,16 135 0 1 -16,16 H 841 A 16,16 45 0 1 825,969 V 841 a 16,16 135 0 1 16,-16 z" />
      <path
         style="fill:#999999;stroke:none;stroke-width:12"
         id="rect972-0-55-9-06"
         width="160"
         height="160"
         x="660"
         y="825"
         sodipodi:type="rect"
         inkscape:path-effect="#path-effect1425-96-39-0-4"
         d="m 676,825 h 128 a 16,16 45 0 1 16,16 v 128 a 16,16 135 0 1 -16,16 H 676 A 16,16 45 0 1 660,969 V 841 a 16,16 135 0 1 16,-16 z" />
      <path
         style="fill:#999999;stroke:none;stroke-width:12"
         id="rect972-0-55-0-15"
         width="160"
         height="160"
         x="990"
         y="825"
         sodipodi:type="rect"
         inkscape:path-effect="#path-effect1425-96-39-36-8"
         d="m 1006,825 h 128 a 16,16 45 0 1 16,16 v 128 a 16,16 135 0 1 -16,16 H 1006 A 16,16 45 0 1 990,969 V 841 a 16,16 135 0 1 16,-16 z" />
      <path
         style="fill:#999999;stroke:none;stroke-width:12"
         id="rect972-0-55-6-9"
         width="160"
         height="160"
         x="1155"
         y="825"
         sodipodi:type="rect"
         inkscape:path-effect="#path-effect1425-96-39-62-71"
         d="m 1171,825 h 128 a 16,16 45 0 1 16,16 v 128 a 16,16 135 0 1 -16,16 h -128 a 16,16 45 0 1 -16,-16 V 841 a 16,16 135 0 1 16,-16 z" />
    </g>
  </g>
</svg>
