<?xml version="1.0" encoding="UTF-8" standalone="no"?>
<svg
   viewBox="0 0 1786.19 556.18"
   version="1.1"
   id="svg23"
   sodipodi:docname="logo.svg"
   inkscape:export-filename="G:\phuwit\Code\flaxibility\ui-assets\logo.png"
   inkscape:export-xdpi="96"
   inkscape:export-ydpi="96"
   inkscape:version="1.1.1 (3bf5ae0d25, 2021-09-20)"
   xmlns:inkscape="http://www.inkscape.org/namespaces/inkscape"
   xmlns:sodipodi="http://sodipodi.sourceforge.net/DTD/sodipodi-0.dtd"
   xmlns="http://www.w3.org/2000/svg"
   xmlns:svg="http://www.w3.org/2000/svg">
  <sodipodi:namedview
     id="namedview25"
     pagecolor="#ffffff"
     bordercolor="#666666"
     borderopacity="1.0"
     inkscape:pageshadow="2"
     inkscape:pageopacity="0.0"
     inkscape:pagecheckerboard="0"
     showgrid="false"
     inkscape:zoom="0.60239954"
     inkscape:cx="892.26496"
     inkscape:cy="278.05466"
     inkscape:window-width="1920"
     inkscape:window-height="1017"
     inkscape:window-x="-8"
     inkscape:window-y="-8"
     inkscape:window-maximized="1"
     inkscape:current-layer="svg23" />
  <defs
     id="defs4">
    <style
       id="style2">.cls-1{fill:#673ab7;}.cls-2{fill:#5e35b1;}.cls-3{fill:#6f00ff;}</style>
  </defs>
  <g
     id="Layer_3"
     data-name="Layer 3">
    <path
       class="cls-1"
       d="M339.63,279c-6.8-13-20.91-22.69-34.29-27.77-21-8-43.61-2.91-61.27,10.24-35.61,26.52-50.09,69.65-59.84,111-22.49,95.5-28.43,195-36.6,292.51-1.66,19.85-3.3,39.69-5.27,59.51-1.4,14.06-2.35,25.26-4.86,38.15-1.05,5.35-2.28,11-4.93,15.77a20.26,20.26,0,0,1-2.56,3.78,13,13,0,0,1-1.49,1.38s.44.56-1.45-.3c.85.39-.3-.16-1-1A22.24,22.24,0,0,1,122,774c-7.18-28.59,22-51.38,43-64.23C187.49,696,211.69,693.17,236.43,686c21-6.07,44.35-17,58.91-33.83,23.69-27.41,36.36-65.33,47.8-99.06a957.61,957.61,0,0,0,33.95-129.6,512.13,512.13,0,0,0,7.67-53.29c.88-10.67,2-23-1.42-33.31-4.18-12.66-17.42-15.27-27-6.11-13.09,12.55-18.59,34.35-23.24,51.15-18.8,68-22.9,142.43-15.31,212.41,4.12,37.89,17.52,82.32,58.27,94.6,33.15,10,69.48-5.49,96.76-23.72,31.27-20.91,59.41-49.86,76.49-83.6,14.66-29,22.17-68.3-3.91-93.66-31.58-30.71-75.8-4.66-95.86,25.55-16.58,25-22.91,55.28-25.39,84.72-1.83,21.65-1.34,45.92,9.6,65.38,14.08,25,43.63,30.2,69.19,21.46,8.87-3,18.11-7.22,24.31-14.46,14.54-17,23.86-38.63,29.48-60,8.35-31.84,8.33-64.82,3.88-97.25C559,501.42,542,505.66,541,516a612.71,612.71,0,0,0-2.28,68.42c.37,18,1.56,36.17,4.74,54,2.57,14.31,6.59,29.84,16.33,41.08,21.58,24.89,49.58.95,63.53-18.61,21-29.46,34.24-64.46,48.56-97.43,7.18-16.52,14.17-33.38,23.28-49,1.55-2.66,3.18-5.26,5-7.77a25.39,25.39,0,0,1,4.19-4.65,5.14,5.14,0,0,1,1-.51c-2-.1-1.13.42-2.07.16-.13,0-2.33-1.22-1-.4,1.5.94-1.77-1.59-.27-.22L699,494a532.61,532.61,0,0,0,2.69,67c3.46,35.34,8.62,76.16,29.4,106.09,9,12.93,21.33,23.31,37.33,25.52,18,2.49,36.17-5.17,50.49-15.59,35.68-26,58-68.44,75.38-107.94,12.43-28.24,23.42-57.52,31.35-87.37L906,479c-5.78,43.71-8.57,88.9-5.15,132.89,1.86,24,4.68,53.74,21.54,72.53,13.21,14.72,34.14,15.06,47.61.9,14.67-15.43,22.28-37.78,28.84-57.54,9.53-28.72,16.31-58.36,22.23-88,11.26-56.38,20-113.91,23.73-171.33.63-9.77,4.75-31.08-4.55-38.2-16-12.22-24.64,22.38-27.52,31.31-19.56,60.55-31.5,126.4-31.49,190.08,0,31.42,3.09,64.65,17.22,93.2,11.36,22.95,35,45.11,61.49,47.74,23.22,2.31,41.07-14.69,51.47-33.72,13-23.87,18.53-51.67,20.87-78.52,2.19-25.18,1.76-52.43-6.14-76.68-3-9.23-7.27-18.82-14.47-25.59-13.3-12.48-36.64-22.33-54.88-16.61-13.63,4.27-24,19.25-16.78,33.19,4.69,9.08,14.82,12.74,24,15.65,30.83,9.79,65.64,8.34,95.07-5.18,19.94-9.16,35.92-24.34,48.55-42.05l-18.27-7.71c-5.89,22-10.39,44.41-14.1,66.84-6.3,38.09-11.7,78.77-4.28,117.09,4,20.61,22.61,59.59,49.82,45.33,8.65-4.54,15.1-13,20.68-20.7,7.87-10.91,14.33-22.84,20.34-34.84,16.35-32.64,29.5-67,41.13-101.56,11.79-35,22.08-70.71,29.21-107,4.77-24.25,11.23-53.26,4.7-77.82-5.09-19.15-25.85-27-37.78-8.73-12.74,19.48-15.67,47.08-18.8,69.5a734.59,734.59,0,0,0-6.79,110.72c.45,35.84,2.9,72.49,11.73,107.35,5.77,22.77,15.59,51.85,38.62,62.64,29.71,13.92,58.5-10.73,72.87-34.91,19.18-32.27,27.26-71.14,31.89-108,1.81-14.4,3.12-29,2.68-43.54-.26-8.39-.27-22.48-10.45-25.36-21.89-6.2-27.26,42.45-29.1,54.73-5.17,34.36-6.59,71.17,2.69,105,8.28,30.17,30,58.93,64.53,56.84,24.19-1.47,39.56-28.25,49.44-47.24,16.68-32.07,28.09-67,38.14-101.63,10.94-37.65,20-75.89,27.3-114.39,5.19-27.17,10.66-55.09,11.55-82.81.21-6.66.69-15.56-4.48-20.64-7.7-7.56-16.67-.91-20.29,6.75-9.83,20.83-13.16,45.81-17.15,68.24a1023.46,1023.46,0,0,0-13.58,110.5c-2.42,36.12-3.09,72.78,2.36,108.66,3.49,23,10.43,53,32.46,65.41,27.93,15.78,62.94-4.46,79.82-27.15C1666,625.77,1673,587.08,1675.91,552a330.39,330.39,0,0,0,.65-47.61c-.6-9.67-1.06-20.25-4.37-29.46-4-11-16.71-13.63-22.67-2.49-4.87,9.11-6.24,20.65-7.82,30.67-5.45,34.56-7.46,70.49-3.22,105.28,3.27,26.84,11.37,66.41,42.66,73.56,34.42,7.86,61.32-21.14,73.56-49.69,14.24-33.22,18.39-71,18.23-106.9,0-9.39.85-68.58-22.69-54.76-9.94,5.84-8.51,24.18-8.74,33.82-.48,20.13.37,40.31,1.25,60.41,1.75,40,4.68,79.88,5.69,119.88.65,25.32,1.46,55.57-18.74,74.23-12.9,11.92-39.49,21.89-56.52,13.14-6.94-3.58-6.59-10.34-4.24-17.13,3.62-10.4,10.52-18.49,21-22.17,23.29-8.19,50.13-3.49,74.31-7.32,25.23-4,49.63-16.79,62.49-39.64,5.73-10.19,8.9-21.56,12.56-32.58a149.77,149.77,0,0,1,19.33-39.18c7.39-10.58-9.94-20.59-17.26-10.1a159.24,159.24,0,0,0-19.18,37.64c-3.77,10.46-6.28,21.58-11.34,31.52-11.52,22.59-35.41,31.76-59.44,33.92-22.21,2-46.33-.94-67.66,6.75-20.14,7.27-36.8,27.44-36.42,49.65.34,20.07,18.11,30.05,36.2,31.24,21.12,1.38,43.74-6.79,59.46-20.8,33.88-30.21,26.22-84.57,24.15-125.24-2-39.43-4.74-78.84-5.57-118.32-.18-8.63-.28-17.27-.07-25.9.07-3.12.18-6.25.38-9.37.09-1.42.2-2.83.33-4.25l.15-1.45c.33-3-.39,1.9.1-.77.18-.94.4-1.86.57-2.8.35-1.95.41-.8.17-.88,1.3.47-1.44.86,0,.22.63-.28-4.7,2.87-4.1,2.63-5.09,2.05-7.62.15-10.3-2.64,1.7,1.77-.08-1.34.5,1.14.39,1.69.87,3.33,1.21,5,.21,1,.37,2.08.55,3.12a8.83,8.83,0,0,1,.26,1.76c.36,2.89.63,5.8.86,8.71.5,6.59.73,13.21.77,19.82a328.4,328.4,0,0,1-3,47.42c-3.87,27.79-11.18,63.84-34.51,82.23-9,7.1-22.41,10.64-31.85,7.54-3-1-6.59-3.51-9.93-7.52-2.3-2.76-5.81-9.22-7.47-13.44-11.57-29.39-10.91-64-9.09-95a371.39,371.39,0,0,1,4.63-42.11c.91-5.26,1.93-10.53,3.33-15.69.46-1.69,1-3.36,1.53-5s0-1.7,0-.14a4.06,4.06,0,0,1,.86-1.64c-1.31,1.49-.45.87-1.57,1.64-4.92,3.37-9.3,1.33-12.27-1.4-2.14-2-.13,0-.16,0s-.61-2.19-.1,0c.33,1.45.77,2.88,1.08,4.34.2,1,.35,1.92.53,2.88.11.57.62,4.09.32,1.88a254.63,254.63,0,0,1,1.78,37.95c-.51,31.63-4.35,65.14-17.3,94.31-5.7,12.84-13.52,25.63-25,34.06a50.9,50.9,0,0,1-18,8.41,49.81,49.81,0,0,1-9.33,1.39c-1.55.08-3.09.07-4.65.06-2.91,0,.69.44-2.09-.22-1.56-.36-5.23-1.71-3.79-1-.93-.44-1.81-1-2.7-1.44-.64-.35-3.28-2.32-1.48-.89a27.47,27.47,0,0,1-7.74-8.83c-6-9.52-8.75-19.54-11.24-31.34-6.45-30.63-6.22-62.78-5-93.91A935.06,935.06,0,0,1,1559,425.43c3.91-25.52,8.27-51.33,15.55-76.14,1-3.52,2.17-7,3.47-10.43.85-2.23-1,1.95,0,0a16.18,16.18,0,0,0,.76-1.57c.83-2.25,1.63-1.49.1-.5-2.37,1.52-6.95,3.34-11.2.27-1-.74-3.08-4.15-2.46-2.93,1.21,2.39.1-1.6.14,1,0,1.48.12,3,.12,4.44,0,23.64-4.5,45.74-8.7,69-12.34,68.41-28.38,138.67-56,202.7-5.49,12.74-11.61,25.35-19.23,37a69.72,69.72,0,0,1-8.89,11.58c-4.1,4.38-4.87,4.87-8.93,7.42-2.86,1.79.4.1-3,1.28-.35.13-3.26.73-1.51.45,1.48-.23-1.94.06-2.6,0a40.48,40.48,0,0,1-16.8-3.69c-10.66-5.33-17.59-15.42-22.23-26.8-11.77-28.85-11.18-62.88-8.12-93.34a238.92,238.92,0,0,1,7-39.38c.63-2.33,1.31-4.65,2.08-6.94.36-1.07.75-2.14,1.14-3.21,1-2.79-.51.74.7-1.73.66-1.33,1.35-2.62,2.13-3.88s-1.37.67-.18.28c1.7-.56-2.72,1.4-2.68,1.39a9.49,9.49,0,0,1-8-2.23c-1-.84-.91-1.85-1.33-2-.79-.2-.1-1.06.08.59.08.78.32,1.61.47,2.39.26,1.28-.17-2.14.06.65.08,1,.17,2.08.24,3.12.15,2.45.2,4.91.21,7.37a299.19,299.19,0,0,1-2.95,41.33c-4.38,32.73-11.92,67.53-29,96.21-6.41,10.78-15.5,22-26.51,26.4a38.09,38.09,0,0,1-8.41,2.25c-.58.07-2.43.13-3.52.17-.76,0-4.7-.34-2.08,0-5.48-.8-5.35-.95-9.77-3.77-1.36-.86-1.13-.65-3.38-2.81-.83-.8-1.62-1.64-2.39-2.49-.31-.34-2.67-3.27-1.57-1.82a77.7,77.7,0,0,1-8.12-13.8c-5.08-10.71-8.8-24.42-11.47-37-6.87-32.34-8.66-65.77-8.78-98.76-.12-33.42,1.64-67.07,6.32-100.18a356.19,356.19,0,0,1,7.34-38.62,153.28,153.28,0,0,1,4.54-15c.37-1,.76-2,1.16-3,0-.12-.48,1,.33-.73s1.7-3.32,2.6-5a20.22,20.22,0,0,1,1.25-1.91c.06-.09-1.11,2,0,.05.17-.29,1.07-.79,1.13-1.11,0-.12-1.87,1-.07.21-1.08.45-2.48,1.17-1.83.72-2.14,1.46-1.26-1.31-.43.07.61,1-.61-1.54-.2,0,.24.9-1.9-1.47-.27-.17.55.44,2.14,2.42,0-.19a6.27,6.27,0,0,1,1,1.54c1,2.66-.24-1,.28.44a40.24,40.24,0,0,1,1.44,5c.21.94.36,1.89.53,2.84.24,1.4-.09-1.38.13,1.21,2.14,25.37-3.15,50.39-8.59,75A912.14,912.14,0,0,1,1281,530.09c-10.66,30.87-22.54,61.49-37.32,90.65C1238,631.85,1232,642.86,1224.77,653a65.37,65.37,0,0,1-7.63,9.24,49,49,0,0,1-3.83,3.52c1.75-1.43-1.33.79-2.61,1.54-1,.57,1.57-1.49.07,0a4.37,4.37,0,0,1-1.79.44c2.76-.29.87-.71.49-.23-.09.12,1.94.7.59,0-3-1.62-7.38-4.37-9.71-7.41-8.06-10.48-10.55-25.07-11.77-38.15-3.27-35.3,1.69-71.45,8-106.15,3.36-18.49,7.19-37,12.06-55.12,3.08-11.47-11.91-16.63-18.27-7.71-20.9,29.29-53.14,44.76-88.93,43.54a118.47,118.47,0,0,1-34.23-6.19,41.19,41.19,0,0,1-8.39-3.7c-.43-.22-1.88-1.38-.42-.19s-.34-.31-.35-.46c0-.91-.87-.41-.18-1.82,1-2.11,5.09-4.12,9.53-4.29,10.2-.4,20,5.5,28.17,10.86,3.45,2.25-.66-.89,1.4,1,.67.61,1.31,1.25,1.94,1.9,2.08,2.12.82.6,2.25,2.95a48.59,48.59,0,0,1,4.66,9.38c7.39,20.6,8.22,43,7.13,64.79-1.19,23.49-5.18,47.9-14.64,69.58-3.94,9-8.67,17.34-15.25,23.82a26.84,26.84,0,0,1-17.58,8.68c-8.72.22-16.91-3.5-25.17-9.28a73.52,73.52,0,0,1-22.63-25c-12.81-23.31-15.68-51.61-16.33-77.73-1.47-59.33,9.37-119.68,25.46-176.61,2.65-9.36,5.47-18.68,8.81-27.82.58-1.58,1.19-3.15,1.79-4.72q.4-1.05.84-2.07c-.82,2-.14.27.3-.61s1-1.87,1.4-2.81c.73-1.58,1.63-1.42.59-1.14-.54.15-.49.71-1.14,1.14a10.16,10.16,0,0,1-12.89-1.76c-.44-.49-2.18-4.07-1.17-1.73.79,1.86-.12-2.64,0-.17,0,1,.14,2.09.18,3.14.25,6.46-.12,13-.49,19.41-2.84,49.41-10.18,98.81-19,147.46-5.13,28.16-11,56.23-18.57,83.85-5.79,21.16-12.11,42.59-22.49,61.56-4.11,7.51-6.24,11.07-11.94,16.07-1.49,1.31.33-.19-.09.08s-1,.71-1.6,1c-2.87,1.64.19,0-1.66.76-2.83,1.1,1.22.26-1.57.24-3,0-1.49.41-4.39-.58a14.12,14.12,0,0,1-6.19-4.15,39.28,39.28,0,0,1-6.24-9.72c-4-8.42-6.61-20.3-8.23-30.45-7.43-46.51-3.36-95.8,1.83-142.37.36-3.26.73-6.51,1.16-9.76,1.5-11.33-16.82-13.3-19.64-2.66a577.89,577.89,0,0,1-21.16,62.9c-14.42,36.67-32.12,74.7-58.86,104.13-11.24,12.38-24.76,23.93-41.25,28.32-11.64,3.09-21.93.91-30-7-21.52-21-27.47-58.06-31.44-87a543.35,543.35,0,0,1-4.7-78.48c0-1.69.24-3.5.08-5.18-.67-7.18-7.48-12.06-14.47-12.26-11-.31-18.52,9.83-23.85,18.05-18.69,28.81-29.72,63-43.9,94.11-7.58,16.62-15.53,33.22-25.28,48.69a112.46,112.46,0,0,1-13,17.38c-3.87,4.11-7.72,7.52-11.77,9.15-3.53,1.43-6.23,1.3-8.69-.09-1.46-.82-2.06-1.26-4.13-3.73.84,1-1-1.46-1.38-2.05-.95-1.56-1.83-3.15-2.62-4.79-6.14-12.77-8.3-29.6-9.64-44.24-2.8-30.69-2.06-61.83.25-92.53q.21-2.87.46-5.71l-19.64,2.66c6.27,45.74,2.49,103.9-30.24,140.12-2.16,2.39,1-.28-1.77,1.37-1.69,1-3.34,2-5.1,2.91-1,.5-2,1-3,1.43-1.45.64,1.33-.47-1.27.49-2.38.87-4.78,1.67-7.24,2.33-9.58,2.56-18.43,3.29-28.06-.69,1.51.62-1.36-.7-1.91-1a41.72,41.72,0,0,1-3.69-2.34c.12.09-1.21-1-2.22-2s-2.33-2.42-2.77-3c-3.93-5-6.66-12.22-8.24-18.88-5.74-24.2-2.07-52.18,3.95-75.92,5.54-21.89,15.89-44.62,34.25-58.72,11.23-8.63,26.32-13.87,39.34-8.11,26.46,11.69,21.09,47.29,11.63,68.74-13.65,30.93-38.24,58.08-65.42,77.81-23.27,16.9-55.39,33.81-83.7,27.64-35.44-7.73-45.41-49.09-48.58-81.36-6.48-65.88-2.81-135,14.27-199.12a219.71,219.71,0,0,1,9.78-29.85,75.53,75.53,0,0,1,9.43-15.82c.14-.18.09.43,0,0s3.4-.28-.73.22c1.14-.14-2.25-.09-2.77-.22a29.78,29.78,0,0,1-2.79-1.71c1.73.92-2-1.15-.23-.27.44.21-.6-2.12-.11-.28.2.79.41,1.6.63,2.39.18.62.59,3.92.22.85.13,1.11.24,2.23.29,3.34,1.49,30.48-5.61,61.9-12,91.49-8.93,41.38-20.22,82.45-34.69,122.26-6.17,17-12.95,33.8-21.31,49.84-6.14,11.78-12.26,22.6-21.5,31-15,13.57-40.41,22.68-62.75,27.48-26.11,5.61-49.6,14.32-71.33,30.31-21.45,15.78-41.5,37.73-40.61,66.19.48,15.55,9.26,36.61,27.84,35.94,19.49-.69,26.14-24.83,28.68-40.3,2.23-13.52,3.61-27.18,4.95-40.81C171.24,633.88,176.2,545,189,456.86c5.84-40.09,12.44-81,26-119.34,11.35-32.14,41.1-81.1,81.77-68.21a50.44,50.44,0,0,1,16.65,9.33,57.53,57.53,0,0,1,6,5.92,16.21,16.21,0,0,1,3,4.49c5.95,11.41,23.22,1.31,17.26-10.1Z"
       transform="translate(-74.24 -247.37)"
       id="path6" />
    <path
       class="cls-2"
       d="M919.34,408.72a21.18,21.18,0,0,1-.79,2.45l1-2.39a11.78,11.78,0,0,1-1.12,2l1.56-2a7.28,7.28,0,0,1-1.23,1.25l2-1.56a8.06,8.06,0,0,1-1.28.72l2.39-1c-2.91,1.16-5.61,1.91-8,4.12-3.83,3.58-3.88,10.58,0,14.15a10.21,10.21,0,0,0,14.14,0,3.48,3.48,0,0,1,.3-.26l-2,1.56a4.7,4.7,0,0,1,.85-.47l-2.39,1c2.49-1,5-1.67,7.11-3.33A19.64,19.64,0,0,0,938.63,414c1.33-5-1.68-11.09-7-12.3s-10.87,1.57-12.3,7Z"
       transform="translate(-74.24 -247.37)"
       id="path8" />
    <path
       class="cls-2"
       d="M1201.34,404.72a21.18,21.18,0,0,1-.79,2.45l1-2.39a11.78,11.78,0,0,1-1.12,2l1.56-2a7.28,7.28,0,0,1-1.23,1.25l2-1.56a8.06,8.06,0,0,1-1.28.72l2.39-1c-2.91,1.16-5.61,1.91-8,4.12-3.83,3.58-3.88,10.58,0,14.15a10.21,10.21,0,0,0,14.14,0,3.48,3.48,0,0,1,.3-.26l-2,1.56a4.7,4.7,0,0,1,.85-.47l-2.39,1c2.49-1,5-1.67,7.11-3.33a19.64,19.64,0,0,0,6.73-10.93c1.33-5-1.68-11.09-7-12.3s-10.87,1.57-12.3,7Z"
       transform="translate(-74.24 -247.37)"
       id="path10" />
    <path
       class="cls-2"
       d="M1419.27,422.53a21.34,21.34,0,0,1-.79,2.46l1-2.39a11.4,11.4,0,0,1-1.12,2l1.57-2a6.93,6.93,0,0,1-1.24,1.24l2-1.56a6.69,6.69,0,0,1-1.28.72l2.39-1c-2.91,1.16-5.6,1.91-8,4.13-3.84,3.57-3.89,10.57,0,14.14a10.21,10.21,0,0,0,14.14,0,2.55,2.55,0,0,1,.3-.26l-2,1.56a4.7,4.7,0,0,1,.85-.47l-2.39,1c2.49-1,5-1.67,7.11-3.33a19.65,19.65,0,0,0,6.73-10.92c1.33-5.06-1.68-11.1-7-12.3s-10.88,1.57-12.31,7Z"
       transform="translate(-74.24 -247.37)"
       id="path12" />
    <path
       class="cls-2"
       d="M86.59,517.72c56.15-16.19,116.53-18.67,170.52-42.17,4.95-2.15,6.08-9.41,3.59-13.68-3-5.11-8.71-5.75-13.68-3.58-25.11,10.92-54.18,16.41-81.37,21.87-28.17,5.65-56.72,10.3-84.37,18.28-12.35,3.56-7.1,22.86,5.31,19.28Z"
       transform="translate(-74.24 -247.37)"
       id="path14" />
    <path
       class="cls-2"
       d="M684.63,693.05c6-12.42,13.71-21.56,21.9-31.35C717.92,648.1,730,635.06,742,622c26.66-29.09,53.92-58.18,76.14-90.9,10.3-15.17,19.73-31.61,24.55-49.43,3.37-12.44-15.92-17.75-19.28-5.32a95.31,95.31,0,0,1-7.31,19A208.39,208.39,0,0,1,803.5,517c-10.1,15.42-21.64,29.81-33.58,43.83-24.45,28.69-51,55.5-75.42,84.25-9.94,11.72-20.38,24-27.13,37.89C665,687.81,666,693.76,671,696.63c4.39,2.57,11.32,1.3,13.68-3.58Z"
       transform="translate(-74.24 -247.37)"
       id="path16" />
    <path
       class="cls-3"
       d="M112,798c6.43,0,6.45-10,0-10s-6.45,10,0,10Z"
       transform="translate(-74.24 -247.37)"
       id="path18" />
    <path
       class="cls-2"
       d="M1455.34,424.64c26.11,5.27,53.53,5.83,80.06,6.34,30.51.59,61.38.32,91.68-3.58,11.74-1.51,24.39-3,35-8.77,11.32-6.13,1.23-23.4-10.1-17.26-.72.39-1.49.69-2.21,1.08,2.77-1.49.41-.19-.47.12-2.06.73-4.17,1.33-6.29,1.86a156,156,0,0,1-15.78,2.95c-.34.05-1.94.26-.12,0l-2.39.3q-2.22.27-4.44.51-5.22.56-10.45,1c-7.19.58-14.4,1-21.62,1.3a849.78,849.78,0,0,1-92.1-1.13c-7.11-.48-14.22-1.06-21.3-1.86-1.4-.15-2.79-.32-4.18-.49-.46-.06-3.18-.44-.49-.06l-2.24-.33c-2.41-.36-4.82-.77-7.21-1.25-5.29-1.07-10.8,1.52-12.3,7-1.36,4.93,1.66,11.23,7,12.3Z"
       transform="translate(-74.24 -247.37)"
       id="path20" />
  </g>
</svg>
