<?xml version="1.0" encoding="UTF-8" standalone="no"?>
<svg
   viewBox="0 0 1430.4241 445.48048"
   version="1.1"
   id="svg23"
   sodipodi:docname="logo_path.svg"
   inkscape:export-filename="G:\phuwit\Code\flaxibility\ui-assets\logo.png"
   inkscape:export-xdpi="96"
   inkscape:export-ydpi="96"
   inkscape:version="1.1.1 (3bf5ae0d25, 2021-09-20)"
   width="1430.4241"
   height="445.48047"
   xmlns:inkscape="http://www.inkscape.org/namespaces/inkscape"
   xmlns:sodipodi="http://sodipodi.sourceforge.net/DTD/sodipodi-0.dtd"
   xmlns="http://www.w3.org/2000/svg"
   xmlns:svg="http://www.w3.org/2000/svg">
  <sodipodi:namedview
     id="namedview25"
     pagecolor="#ffffff"
     bordercolor="#666666"
     borderopacity="1.0"
     inkscape:pageshadow="2"
     inkscape:pageopacity="0.0"
     inkscape:pagecheckerboard="0"
     showgrid="false"
     inkscape:zoom="0.8519216"
     inkscape:cx="628.57897"
     inkscape:cy="269.39099"
     inkscape:window-width="1920"
     inkscape:window-height="1017"
     inkscape:window-x="-8"
     inkscape:window-y="-8"
     inkscape:window-maximized="1"
     inkscape:current-layer="svg23"
     fit-margin-top="0"
     fit-margin-left="0"
     fit-margin-right="0"
     fit-margin-bottom="0"
     inkscape:snap-bbox="true"
     inkscape:bbox-paths="true"
     inkscape:bbox-nodes="true"
     inkscape:snap-bbox-edge-midpoints="true"
     inkscape:snap-bbox-midpoints="true"
     inkscape:snap-page="true" />
  <defs
     id="defs4">
    <style
       id="style2">.cls-1{fill:#673ab7;}.cls-2{fill:#5e35b1;}.cls-3{fill:#6f00ff;}</style>
    <pattern
       id="EMFhbasepattern"
       patternUnits="userSpaceOnUse"
       width="6"
       height="6"
       x="0"
       y="0" />
    <pattern
       id="EMFhbasepattern-5"
       patternUnits="userSpaceOnUse"
       width="6"
       height="6"
       x="0"
       y="0" />
  </defs>
  <g
     id="g1155"
     transform="matrix(0.60068971,0,0,0.60068971,240.18968,-403.37916)"
     style="stroke-width:26.636;stroke-miterlimit:4;stroke-dasharray:none">
    <path
       style="fill:none;stroke:#673ab7;stroke-width:26.636;stroke-linecap:round;stroke-linejoin:round;stroke-miterlimit:4;stroke-dasharray:none;stroke-opacity:1"
       d="m -57.205163,720.48587 c -10.66666,-21.33333 -81.333327,-81.33333 -149.333327,28 -68,109.33334 -78.66667,526.66663 -96,614.66663 -17.33333,88 -92,-1.3333 -10.66667,-66.6666 81.33334,-65.3334 112.66667,-28.6667 188,-84 70.666667,-52 154.666667,-425.33336 118.6666672,-424.00002 -28.0000002,1 -73.6666702,175.66666 -54.6666702,348.00002 29,261.3333 338.000003,10.6666 296.000003,-109.3334 -25.33333,-71.99996 -129.33333,-46.66662 -150.666663,82.6667 -30.33334,184.3333 94.000003,136.6667 109.333333,118.6667 25.33333,-29.3334 57.33333,-96 42.66667,-198.6667 0,0 -20.66667,225 44,218.6667 69.33333,-6.6667 130.66666,-282.66669 166.66666,-248 0,0 -8,274.6666 101.33334,250.6666 109.33333,-24 174.66663,-270.66662 174.66663,-270.66662 0,0 -37.3333,280.33332 44,276.00002 74.6667,-4 126.6667,-461.00002 113.3334,-464.00002 -12,-2.66667 -113.3334,341.33332 -13.3334,433.33332 129,118.6667 163.99999,-198.3333 104,-239.99999 -57.3333,-40 -85.3333,-1.33333 -66.6666,14.66669 13,11 127.99999,49.3333 195.99999,-48.00002 0,0 -70.6667,262.33332 10.6666,292.00002 58.6667,21.3333 214.6667,-454.66669 145.3334,-458.66669 -47,-2.66667 -80,461.33329 33.3333,459.99999 100,-1.3333 117,-258.66666 102.6667,-261.33332 -21.3334,-4 -68,264.66662 53.3333,262.66662 88,-1.3333 174.6667,-467.99996 153.3333,-466.66663 -20,1.33334 -101.6666,465.00003 15,463.66663 129,-1 115.6667,-259.66662 102.3334,-268.99996 -13.3334,-9.33333 -52,265.33336 40,263.99996 113.3333,-1.6666 101.3333,-258.66662 86.6666,-258.66662 -14.6666,0 1.3334,200.00002 2.6667,253.33332 1.3333,53.3333 6.6667,110.6667 -42.6667,140 -45,26.6667 -116.6666,18.3333 -82.6666,-42.6667 30.6666,-54.6666 117.3333,-12 177.3333,-52 47,-31.3333 31.6667,-70.6666 70.6667,-125.3333"
       id="path994" />
    <path
       style="fill:none;stroke:#5e35b1;stroke-width:26.636;stroke-linecap:round;stroke-linejoin:round;stroke-miterlimit:4;stroke-dasharray:none;stroke-opacity:1"
       d="m 740.12821,890.15254 c -2.6667,10.66667 -8,8 -10.6667,10.66667"
       id="path996" />
    <path
       style="fill:none;stroke:#5e35b1;stroke-width:26.636;stroke-linecap:round;stroke-linejoin:round;stroke-miterlimit:4;stroke-dasharray:none;stroke-opacity:1"
       d="m 1116.1282,884.81921 c -2.6667,10.66667 -8,8 -10.6667,10.66667"
       id="path998" />
    <path
       style="fill:none;stroke:#5e35b1;stroke-width:26.636;stroke-linecap:round;stroke-linejoin:round;stroke-miterlimit:4;stroke-dasharray:none;stroke-opacity:1"
       d="m 1406.7948,908.81921 c -2.6666,10.66667 -8,8 -10.6666,10.66667"
       id="path1000" />
    <path
       style="fill:none;stroke:#5e35b1;stroke-width:26.636;stroke-linecap:round;stroke-linejoin:round;stroke-miterlimit:4;stroke-dasharray:none;stroke-opacity:1"
       d="m -386.53849,1019.1525 c 62.33333,-18 165.33333,-28.99996 224,-54.66662"
       id="path1002" />
    <path
       style="fill:none;stroke:#5e35b1;stroke-width:26.636;stroke-linecap:round;stroke-linejoin:round;stroke-miterlimit:4;stroke-dasharray:none;stroke-opacity:1"
       d="m 402.79484,1259.1525 c 29.33334,-61.3333 185.33334,-188 209.33334,-278.66662"
       id="path1004" />
    <path
       style="fill:none;stroke:#5e35b1;stroke-width:26.636;stroke-linecap:round;stroke-linejoin:round;stroke-miterlimit:4;stroke-dasharray:none;stroke-opacity:1"
       d="m 1445.4615,895.15254 c 52,10.66667 229.3333,13.33334 265.3333,-6.66666"
       id="path1006" />
  </g>
</svg>
