<?xml version="1.0" encoding="UTF-8" standalone="no"?>
<!-- Created with Inkscape (http://www.inkscape.org/) -->

<svg
   width="160.0px"
   height="160.0px"
   viewBox="0 0 160.0 160.0"
   version="1.1"
   id="SVGRoot"
   sodipodi:docname="conveyor_straight_stripes.svg"
   inkscape:version="1.1.1 (3bf5ae0d25, 2021-09-20)"
   xmlns:inkscape="http://www.inkscape.org/namespaces/inkscape"
   xmlns:sodipodi="http://sodipodi.sourceforge.net/DTD/sodipodi-0.dtd"
   xmlns="http://www.w3.org/2000/svg"
   xmlns:svg="http://www.w3.org/2000/svg">
  <sodipodi:namedview
     id="namedview740"
     pagecolor="#ffffff"
     bordercolor="#666666"
     borderopacity="1.0"
     inkscape:pageshadow="2"
     inkscape:pageopacity="0.0"
     inkscape:pagecheckerboard="0"
     inkscape:document-units="px"
     showgrid="true"
     inkscape:zoom="2.8284271"
     inkscape:cx="-8.3085048"
     inkscape:cy="108.36412"
     inkscape:window-width="1920"
     inkscape:window-height="1017"
     inkscape:window-x="-8"
     inkscape:window-y="-8"
     inkscape:window-maximized="1"
     inkscape:current-layer="layer1"
     inkscape:snap-bbox="true"
     inkscape:bbox-paths="true"
     inkscape:bbox-nodes="true"
     inkscape:snap-bbox-edge-midpoints="true"
     inkscape:snap-bbox-midpoints="true" />
  <defs
     id="defs735">
    <inkscape:path-effect
       effect="fillet_chamfer"
       id="path-effect558"
       is_visible="true"
       lpeversion="1"
       satellites_param="F,0,0,1,0,12,0,1 @ F,0,0,1,0,12,0,1 @ F,0,0,1,0,12,0,1"
       unit="px"
       method="auto"
       mode="F"
       radius="12"
       chamfer_steps="1"
       flexible="false"
       use_knot_distance="true"
       apply_no_radius="true"
       apply_with_radius="true"
       only_selected="false"
       hide_knots="false" />
    <inkscape:path-effect
       effect="fillet_chamfer"
       id="path-effect223"
       is_visible="true"
       lpeversion="1"
       satellites_param="F,0,0,1,0,16,0,1 @ F,0,0,1,0,16,0,1 @ F,0,0,1,0,16,0,1"
       unit="px"
       method="auto"
       mode="F"
       radius="12"
       chamfer_steps="1"
       flexible="false"
       use_knot_distance="true"
       apply_no_radius="true"
       apply_with_radius="true"
       only_selected="false"
       hide_knots="false" />
    <inkscape:path-effect
       effect="fillet_chamfer"
       id="path-effect1101"
       is_visible="true"
       lpeversion="1"
       satellites_param="F,0,0,1,0,0,0,1 @ F,0,0,1,0,0,0,1 @ F,0,0,1,0,0,0,1 @ F,0,0,1,0,0,0,1"
       unit="px"
       method="auto"
       mode="F"
       radius="0"
       chamfer_steps="1"
       flexible="false"
       use_knot_distance="true"
       apply_no_radius="true"
       apply_with_radius="true"
       only_selected="false"
       hide_knots="false" />
    <inkscape:path-effect
       effect="fillet_chamfer"
       id="path-effect1425-96-39-2"
       is_visible="true"
       lpeversion="1"
       satellites_param="F,0,0,1,0,16,0,1 @ F,0,0,1,0,16,0,1 @ F,0,0,1,0,16,0,1 @ F,0,0,1,0,16,0,1"
       unit="px"
       method="auto"
       mode="F"
       radius="16"
       chamfer_steps="1"
       flexible="false"
       use_knot_distance="true"
       apply_no_radius="true"
       apply_with_radius="true"
       only_selected="false"
       hide_knots="false" />
  </defs>
  <g
     inkscape:label="Layer 1"
     inkscape:groupmode="layer"
     id="layer1"
     style="display:inline">
    <path
       id="rect1019"
       style="fill:#4d4d4d;stroke-width:0.783861"
       d="m 78.556641,124.2793 a 15,15 0 0 0 -7.927735,3.21679 L 59.734375,136.21289 39.371094,152.50391 30,160 h 12 76 12 l -9.37109,-7.49609 -10.42579,-8.3418 -9.9375,-7.94922 -10.894526,-8.7168 A 15,15 0 0 0 78.556641,124.2793 Z" />
    <path
       id="rect1019-9"
       style="display:inline;fill:#4d4d4d;stroke-width:0.783861"
       d="m 78.556641,44.279297 a 15,15 0 0 0 -7.927735,3.216797 L 59.734375,56.212891 39.371094,72.503906 30,80 v 35.78906 h 0.002 l 9.369141,-7.49414 20.363281,-16.291014 10.894531,-8.716797 a 15,15 0 0 1 7.927735,-3.216797 15,15 0 0 1 10.814453,3.216797 l 10.894529,8.716797 9.9375,7.949219 10.42579,8.341795 9.36914,7.49414 H 130 V 80 l -9.37109,-7.496094 -10.42579,-8.341797 -9.9375,-7.949218 -10.894526,-8.716797 A 15,15 0 0 0 78.556641,44.279297 Z" />
    <path
       id="rect935-2"
       style="display:inline;fill:#4d4d4d;stroke-width:1.88804"
       d="m 29.999902,0 v 35.78906 h 0.002 l 9.36914,-7.49414 20.363281,-16.29101 10.894532,-8.7168 a 15,15 0 0 1 7.927735,-3.2168 15,15 0 0 1 10.81445,3.2168 l 10.89454,8.7168 9.9375,7.94922 10.42578,8.34179 9.36914,7.49414 H 130 V 0 Z" />
  </g>
</svg>
