<?xml version="1.0" encoding="UTF-8" standalone="no"?>
<svg
   id="Layer_2"
   data-name="Layer 2"
   viewBox="0 0 1742.41 463.06"
   version="1.1"
   sodipodi:docname="logo_.svg"
   inkscape:version="1.1.1 (3bf5ae0d25, 2021-09-20)"
   xmlns:inkscape="http://www.inkscape.org/namespaces/inkscape"
   xmlns:sodipodi="http://sodipodi.sourceforge.net/DTD/sodipodi-0.dtd"
   xmlns="http://www.w3.org/2000/svg"
   xmlns:svg="http://www.w3.org/2000/svg">
  <sodipodi:namedview
     id="namedview17"
     pagecolor="#ffffff"
     bordercolor="#666666"
     borderopacity="1.0"
     inkscape:pageshadow="2"
     inkscape:pageopacity="0.0"
     inkscape:pagecheckerboard="0"
     showgrid="false"
     inkscape:zoom="0.45254834"
     inkscape:cx="896.03688"
     inkscape:cy="-180.09126"
     inkscape:window-width="1920"
     inkscape:window-height="1017"
     inkscape:window-x="-8"
     inkscape:window-y="-8"
     inkscape:window-maximized="1"
     inkscape:current-layer="Layer_2" />
  <defs
     id="defs4">
    <style
       id="style2">.cls-1{fill:#0019ff;}</style>
  </defs>
  <path
     class="cls-1"
     d="M343.49,334.51c-22.61-20.13-56.52-28.05-79.63-4.28-13.21,13.6-17.24,32.2-21,50.13-3.65,17.48-6.36,35.13-8.68,52.83A1208.51,1208.51,0,0,0,223.5,583.47c-.08,14.65-.94,25.67-5.8,39.62-2.88,8.25-7.57,16.48-15.11,20.66-9.86,5.48-24.41,2.78-34.79-1.75-21.4-9.33-31.89-32.8-28.49-55.27,3.8-25.09,25.08-39,45.75-50.6,66.65-37.44,143.42-56.82,203.38-105.93a241,241,0,0,0,35.9-37.05c11.92-15.08,29-35.66,29.09-55.85.2-27.54-34.11-23.49-49.85-12.78-27.39,18.62-40.8,54.8-49.71,85.15-9.09,31-10.56,64.28-8.71,96.34a423.32,423.32,0,0,0,15.53,93.24c6.07,20.9,13.83,45.92,29.84,61.63,6.46,6.33,15.06,10.78,24.3,8.81a22.62,22.62,0,0,0,9.82-4.75c4.53-3.75-9.44,5.58-.22.24,6.47-3.76,10.44-11.56,13.49-18,9.78-20.76,15.62-43.4,20.93-65.62,4.86-20.31,8.95-40.79,12.72-61.32l-14.76,8.38c23,5.26,46.55,9.53,70.08,11.39,25.07,2,64.13-3.4,71.83-33,5.73-22-8.68-41.76-31-44.06-29.64-3.06-49.24,14.78-58.89,41.19-10,27.46-9.67,58.52-6.86,87.24,2,20.84,5,44.89,17.77,62.29,13.4,18.31,36.41,19.72,53.06,4.71,18.53-16.7,26.78-44.63,32.92-67.93a395.18,395.18,0,0,0,9.75-49.9h-24a362.42,362.42,0,0,0,7.24,48c5,22.84,12.09,50.88,30.25,67.09,23.48,21,50.85,4.9,69.11-14.6,24.23-25.88,39.63-59.34,52-92.17a472.65,472.65,0,0,0,20-66.08L750,488c23.25,20.28,39.16,54.43,21.3,83.25-16.87,27.21-40.57,50.21-55.67,78.7-5.72,10.79,5.69,22,16.42,16.42a604.13,604.13,0,0,0,92.43-59c31.87-24.76,82.81-70,49.11-112.66C864.22,482.8,849.48,473.85,834,479c-15.76,5.27-23.16,22.8-26.33,37.75-6.15,29-4.33,60.7,2.17,89.5,5.19,23,16.07,53.54,41.59,60.53,22.88,6.28,40-12.91,51.61-29.84,17-24.8,28.68-53.51,39.39-81.45,6-15.75,11.72-31.68,16.63-47.82l-23.14-6.38a605.79,605.79,0,0,0-10,81.62c-1.26,24.46-5,81.08,29.62,85.77,12.06,1.63,22-6.47,29.31-15.2,10.22-12.26,17.91-26.49,24.93-40.75,17.7-35.91,31.65-73.75,44.75-111.54,8.32-24,16.3-48.16,23.52-72.52,4.41-14.86-18.58-21.1-23.14-6.38-8.06,26-14.89,52.43-20.93,78.95-5.18,22.76-9.58,45.7-12.57,68.85-2.58,20-4.3,40.36-1.45,60.4,2,13.92,7.19,29.2,20.7,35.82,19,9.32,40.66-.9,53.22-15.85,14.61-17.38,22.8-39.79,28.61-61.46,4-14.84,8.66-31.94,8.07-47.46-.87-23-13.3-60.38-43.1-51.11-32.32,10.05-39.38,48.13-52.84,74.49-5,9.7,3.17,19.62,13.55,17.63,19.08-3.65,37.94-9.51,56.11-16.31C1137.51,553.82,1171.21,537,1195,510l-20.06-11.68c-5,30.87-8.36,62.39-8.72,93.67-.22,18.5-.09,39,6.85,56.4,6.28,15.77,21.52,26.83,38.47,18.45,11.09-5.48,18.23-17.48,23.71-28.08,8.75-16.91,15.17-35.11,20.93-53.21,14.17-44.5,24.27-90.4,32.45-136.34,3.78-21.23,7.09-42.58,9.5-64,1.5-13.28,3.18-27,2.26-40.4-.77-11.2-7.57-28.2-22.2-20-8.76,4.91-10.71,17.63-12.37,26.57-7,37.52-8.34,76.42-9.55,114.46-1.4,44.14-1.61,88.63,2.26,132.66,1.38,15.65,2.86,31.85,7.35,47,3.57,12,9.35,22.6,23,23.79,16.43,1.43,30.42-7.88,40.36-20.21,17.11-21.25,27.34-47.82,37.28-72.91,7.33-18.5,14.11-37.2,20.77-55.94L1363.69,517a446.08,446.08,0,0,0-.66,51.71c1.09,26.27,2.76,57.9,17.5,80.67,13.51,20.89,38.83,24.34,57.4,7.89,17.18-15.23,27.42-38.84,36.21-59.5,25-58.89,41.71-122.14,53.39-185,3.76-20.23,8.61-42,7.43-62.73-.41-7.1-1.74-15.05-8.59-18.85-9-5-17.69,1.39-21.72,9.37-9.61,19-11,43.57-13.56,64.3-4,32.31-6.23,64.86-7.39,97.39-1.13,31.44-1.44,63.12,1.24,94.5,1.72,20.11,2.85,46.3,18.75,61,36.35,33.7,85.08-5.39,103.06-39.5,6.9-13.09,12.09-26.93,18.82-41.63,7.44-16.27,14.85-32.58,21.45-49.22,5.93-14.94,25.81-63.8-6.74-63.71-14,0-29.2,12.45-38.2,22-12.13,12.87-20,29.35-24,46.49-7.85,33.56-3.83,71.22,11.15,102.28,11.55,23.94,35.28,44.08,62.15,29.06,25-14,36.51-47.06,44.4-72.71,8.2-26.67,13.41-54.26,17.16-81.88.77-5.65,1.54-11.31,2.1-17h-24q-3.07,54.56-7.24,109c-2,27-4.24,54-7.15,80.87-1.15,10.56-2.09,18.84-3.57,28.22-1.2,7.62-2.23,15.58-6.22,22.32-5.23,8.82-14.69,16.18-23.5,19.83a33.18,33.18,0,0,1-11.41,2.78c-.94,0-1.88-.12-2.81-.09,2.64-.07-.35-.33-.89-.37,3.45.3-.71.06-.18-.18-.55.25.79-.34.65.79,0,0-.5-1.42-.51-1.58a15.28,15.28,0,0,1,.88-6.25,38.29,38.29,0,0,1,4.52-10.57c4.68-7.88,7.88-11.38,14.26-18.5,34.09-38.06,75.31-70.29,115.3-101.83,29.16-23,58.77-45.47,88.93-67.13,12.43-8.93.46-29.76-12.12-20.72-28.41,20.41-56.3,41.6-83.88,63.12-43.4,33.87-88.35,68.45-125.2,109.59-13.41,15-30.37,35.57-26.13,57.28,5.59,28.61,40.73,21.36,58.52,10.16,11.2-7,21.23-17,26.81-29.1,3.89-8.46,5.3-17.49,6.65-26.63,3.83-25.94,6.14-52.11,8.35-78.23q6-71.33,9.94-142.83c.88-15.6-22.51-15.12-24,0-.41,4.15-.94,8.28-1.48,12.41-.07.5.24-1.73-.1.68-.17,1.24-.35,2.48-.53,3.73-.37,2.57-.76,5.13-1.16,7.7q-1.35,8.58-2.94,17.12c-5,26.79-11.11,54.49-22.8,79.26-5,10.64-10.11,19.89-18.68,27.22a34.91,34.91,0,0,1-4.08,2.73c-.6.36-3,1.43-1.07.67a30.86,30.86,0,0,1-4.1,1.27c-2.27.58,1.29,0-1.06.21a17.22,17.22,0,0,1-3,0c2.65.17-3.72-1.44-2.08-.65-7.9-3.82-13.34-12.18-18-21.93-5.89-12.21-9.3-26.19-10.78-39.63-3.1-28.08.63-61.14,21.75-81.94a69.79,69.79,0,0,1,16.34-11.76c2.73-1.44,1.13.18,4-1.46-1.43.83-2-.3-.25.15-2.25-.6-3.24-.77-4.1-1.4a4.93,4.93,0,0,1-2.06-2.54c-.53-1-.58.49-.14-.43.69-1.45-.22,4.66-.13,3.87.15-1.33-.29,1.68-.4,2.18-.25,1.19-.5,2.37-.78,3.54-.69,2.87-1.51,5.69-2.39,8.5-8.68,27.76-22.09,54-34,80.42-6.53,14.46-12,29.46-22.49,41.65-9.81,11.38-25.19,24.8-41.48,23a21.64,21.64,0,0,1-8.44-2.86,24.42,24.42,0,0,1-4.62-3.52c-.78-.73-1.43-1.59-2.19-2.32-2.32-2.24.81,1.31.32.53-.66-1.06-1.26-2.13-1.88-3.21-.22-.4-1.15-2.62-.41-.84s-.34-1-.49-1.47c-1.19-3.89-2.27-7.77-3.08-11.77-1-4.73-1.76-10.2-2.08-13-3.1-26.46-3.4-53.27-3-79.88.72-53.48,2.69-109.2,14.19-160.72.82-3.7,1.72-7.39,2.86-11,.46-1.49,1-2.95,1.53-4.41-.82,2.24.29.77.58-1,.4-2.45-1,.68-.18.05a10,10,0,0,1-9.1,2c-2-.52-2.83-1.29-4.41-2.56,0,0-2.33-3-1.28-1.59-.23-.3-1.39-3.1-.38-.32.92,2.53,0-2.84,0,.27,0,1.47.15,3,.16,4.43,0,3.4-.19,6.79-.45,10.18-.85,11-1.76,16.76-3.45,27.17A966.27,966.27,0,0,1,1465.44,554c-8.17,23.36-17,46.51-29.93,67.75-5.2,8.57-7.44,11.77-14.55,18.59-1,1-1.62,1.29,0,.14a21.25,21.25,0,0,1-1.85,1.3c-1.83,1-4,1.91-1.74,1.17-1.17.39-6,1.35-3.78,1.15a24.06,24.06,0,0,1-3.06.09c-2.16-.09,1.73.31-1.09-.17-.46-.08-3-1-1.64-.44s-1.08-.62-1.46-.89c-2.26-1.61.57.75-1-.69-.86-.79-1.66-1.62-2.44-2.48-1.45-1.58-.35-.35-.7-.86-.63-.9-1.22-1.82-1.79-2.77a56.13,56.13,0,0,1-3.44-6.79c-3.24-7.67-6.26-21.92-7.6-31.89-3-22.09-3.17-45.51-2.28-68.1.16-4,.34-8.05.64-12.07,1.07-14.24-19.29-15.23-23.57-3.19-11,31.07-21.94,62.55-36.57,92.16-4.51,9.12-9.37,18.34-15.59,26.44-.74,1-4.22,4.84-6.15,6.74-.64.63-1.33,1.22-2,1.8-1.54,1.31,2.23-1.51-.41.34-1.33.92-2.7,1.73-4.11,2.52-2.93,1.62.81,0-1.74.71-1.29.35-2.54.71-3.86,1,3.27-.6-.71,0-1.65-.05-.74,0-1.53-.15-2.26-.09-1.81.15.33.27.1,0s3.79,2.33,1.89.86c-.55-.42,1.51,2.76.32.32-.44-.9-1-1.85-1.47-2.72-.84-1.47.88,2.67,0-.14-.39-1.16-.83-2.3-1.19-3.47-.86-2.72-1.54-5.5-2.16-8.28s-1.21-5.89-1.71-8.85c-.71-4.16-1.09-6.93-1.37-9.25-4.68-38.32-5-77.27-4.55-115.82.44-39,1.91-78.16,6.12-116.95q.57-5.3,1.25-10.58c.46-3.57-.21,1.48.08-.63.13-.87.25-1.74.38-2.62.24-1.65.49-3.29.76-4.94a136.87,136.87,0,0,1,3.12-15c.46-1.61,1-3.17,1.58-4.74-1.41,3.89-.8,1.75-.21.78,1.33-2.21-2.07,1.89-.68.81-4.6,3.59-9.65,3.45-14.22,0-1.19-.89-2.77-5.05-1.6-1.58.65,1.93.13.94,0-.73.09,1,.21,2,.26,2.95.12,2.45.19,4.89.17,7.33-.06,6.21-.47,12.42-1,18.61-1.44,17.22-3.54,32.19-6.19,49a1217.09,1217.09,0,0,1-26.57,125.94c-8.74,32.51-17.17,66.28-35.77,93.56-1.93,2.83.91-.84-.87,1.17l-2.25,2.51c-.68.75-1.48,1.41-2.23,2.09,1.42-1.29.63-1-.79.39a5.09,5.09,0,0,1-1,.51c5.77-3.26,1.13-.22,1.14-.54a9.68,9.68,0,0,1-2,.49c.38,0,2.72-.57.75-.14-2.58.58.49.85-.87,0s-1.44.71.54.29l-.63-.36c-1.05-.69-.83-.49.64.6a18.15,18.15,0,0,1-2.17-2.2c1.89,3-.61-1.27-.94-1.85-1.49-2.57-.06.46-.94-2q-1-2.8-1.76-5.68c-2.21-8.42-2.64-13.88-3.13-22.75-1.07-19.29,0-38.71,1.62-58q1.13-13.08,2.71-26.12.6-5,1.27-10c.26-2-.4,2.87,0-.18.08-.59.16-1.18.25-1.77.18-1.3.36-2.61.55-3.91.34-2.35.69-4.7,1.07-7,1.73-10.64-11.32-21.62-20.06-11.68-21.9,24.91-53,40.33-83.79,51.46-17,6.17-34.61,11.55-52.41,15l13.55,17.63c9.82-19.22,14.75-48.38,33.77-61.1,8.07-5.4,10.32-2.2,13.23,6.4a94.59,94.59,0,0,1,3.34,13.49c.35,1.93.65,3.88.94,5.83.41,2.74.18-2.53-.05.32-.17,2-.18,4-.37,6-.12,1.22-.27,2.45-.42,3.67.34-2.7-.35,2.34-.5,3.31-1.32,8.28-3,16.5-5.13,24.62-4.69,18.31-10.86,37.65-22.43,52.9-4,5.21-9.88,10.42-14.31,12-4.09,1.46-4.66,1.51-8.7,1.15a25.47,25.47,0,0,1-3-.6c-2-.49.47.31.75.41a7.81,7.81,0,0,1-2-1.06c-1-.8,1.6,1.59-.79-.7s-.12.25-.87-.93c-.61-1-1.16-1.94-1.72-2.92-1.56-2.73,0,.81-.94-2.2a77.51,77.51,0,0,1-2.33-9,53,53,0,0,1-1-8.59c-2.55-37.48,6-76.08,14.29-112.4,6-26.52,12.87-53,20.93-78.95l-23.14-6.38c-15.58,52.5-33.23,105-55.16,155.19-6.69,15.3-13.8,30.53-22.38,44.88-1.58,2.65-3.21,5.27-4.93,7.83-.85,1.26-1.72,2.5-2.6,3.74a12.5,12.5,0,0,1-2,2.58c-1.6,1.89-3.24,3.7-5,5.43-.77.76-1.6,1.47-2.44,2.15,2.19-1.77,0-.38-.86.42-2.27,2.17-.17-1,0,.17,0-.36-3.74,1.72-.95.42.54-.24-.17-.09,0,0a2.7,2.7,0,0,1-1.81-1.45c-2.46-3.62-2.06-3-3.14-6.39-4.61-14.39-4.5-29.42-4.06-45.24a519.21,519.21,0,0,1,9.49-84.3c2.86-15-18.59-21.34-23.14-6.38-9.85,32.36-21.89,64.55-37,94.8a237.53,237.53,0,0,1-17.42,30,78.91,78.91,0,0,1-7.27,9.07,37.33,37.33,0,0,1-7.72,6.83c-.7.47-1.46.85-2.2,1.25-1.75.93,2.49-1.27-.22.13a8.22,8.22,0,0,1-2.19.63c-1.85.32,3-.11.13,0-4.4.16-5.5-.25-9.07-2.7-5.4-3.7-10.54-12.67-13.66-20.43-9.48-23.6-12-50.52-10.93-75.73.53-12.79,4.95-57.8,24.13-38.34a43.47,43.47,0,0,1,6.17,8.26c.38.62.73,1.28,1.05,1.93,1.52,3.08-.58-2.14.42,1.08.28.92,1.17,5.61.86,2.9a31.51,31.51,0,0,1,.09,5.23c-.16,3.45.54-2.39-.1,1.07-.14.71-.27,1.45-.46,2.15-.5,1.84-1,3.66-1.69,5.44a85.57,85.57,0,0,1-5.68,10.47c-10.84,16.75-28,31.44-44.26,44a584.86,584.86,0,0,1-88.93,56.31l16.42,16.42c10.31-19.45,24.72-37.32,37.88-54.82,14.32-19,28.54-36.46,29.15-61.41.43-17.73-6.09-35.3-15.65-50C781.94,486.9,775,478,767,471c-6.37-5.55-18-4.11-20.06,5.3-10,46.11-26.75,94.39-54,133.13-7.64,10.85-17,21.85-28.44,28.81a31.68,31.68,0,0,1-5.35,2.69,29.4,29.4,0,0,1-3.31.89c-3.52.72,2.38-.22-1,.08a16.25,16.25,0,0,1-3-.11c3,.34-.14-.16-.67-.33s-3.35-1.41-.79-.19a28.46,28.46,0,0,1-3.47-2c-2.7-1.81,1.08,1-.44-.35a24.25,24.25,0,0,1-2-1.83c-1.76-1.88-2.75-3-3.24-3.66a80.83,80.83,0,0,1-8.1-14.4c-4-8.92-7.59-21.45-10.09-32.16q-2-8.62-3.55-17.36c-.5-2.83-1-5.66-1.42-8.5-.19-1.27-1.14-8-.8-5.4-.68-5-1.29-10.06-1.69-15.11-1.25-15.71-22-15.11-24,0,.24-1.89.5-3.36,0-.4-.35,2.23-.68,4.46-1,6.69q-1.83,11-4.23,22c-4.06,18.5-8.95,37.49-17.58,54.45-3.68,7.23-8.09,14.55-13.5,18.76a14.69,14.69,0,0,1-6.08,2.95c-1.25.21.13.35-2.41.13-.39,0-1.7-.3-1.72-.3-4.24-1.41-7.65-7.16-10.21-13.08-3.22-7.46-5.32-17-6.8-25.56-3.8-21.79-5-45.43-2.5-67.68.22-1.92.85-6.07,1.55-9.64a128.46,128.46,0,0,1,3.68-14.48c2.6-8.12,6.36-16.81,13-22.44,6.32-5.34,17.8-7.11,26-4.35,2.78.93,3.8,1.82,4.34,2.77a11.37,11.37,0,0,1,1.69,5.94c0,1.43,0,2.83-.11,4.26a12.83,12.83,0,0,1-.14,1.39c.71-4.3,0-.26-.36.07,1.66-1.62-1.69,2.22-1.63,2.14a26.53,26.53,0,0,1-5.13,4.74c-11.68,8.45-26.7,8.25-40.43,7.22-21.76-1.63-43.5-5.77-64.76-10.62-5.9-1.35-13.55,1.77-14.76,8.38-6.16,33.51-12.82,67.23-23.22,99.72-4.3,13.45-6.48,20.46-13.94,31.89,2.57-3.94.92-.9-.16-.07-2.2,1.68,2.71-2,1.1-.84,7.75-5.48-5.31,5.13-1.51,1.12a6.18,6.18,0,0,1-1.26.81c-1.18.61.54.21.31-.15-.12-.19,1.59,0,1.15,0-2.62-.15,1.28,1-1.13-.52-2.69-1.66.82,1.19-1.6-1.23a31.4,31.4,0,0,1-6.45-8.15c-5.47-8.69-9.47-18.22-12.88-27.88-9.6-27.22-15.37-56-18.26-84.7-3.08-30.52-3.56-62.14,2.61-92.32C379,403.13,390,368.38,412.07,348.2c5.87-5.36,12.39-8.21,17.89-8.23,2.48,0,1.78.38,1.31-.38,1.53,2.46-3.16-4.08-1.62-1.91-1.17-1.65.1-1.25-.28.63.47-2.34,0-.37-.11.08-.36,1.62-1.61,5.27-1.78,5.69-4.05,9.77-10.42,18.82-16.59,27.34-1.1,1.51-2.21,3-3.33,4.49-2.27,3,.82-.91-1,1.26-1.54,1.87-3.1,3.71-4.68,5.54-13.74,16-28.61,30.22-46.11,42.08C322,447.7,284.17,464,247,480.5c-30.05,13.33-61.51,25.61-88.95,44-21.32,14.28-38.33,32-42.24,58.23-3.76,25.21,4,52.62,23.82,69.5s53.64,26.25,76.89,11.15c18.53-12,26.27-34.38,29.26-55.3,1.38-9.69,1.6-19.28,1.8-29,.45-21.35,1.45-42.71,2.83-64,2.17-33.56,5.22-67.15,10.53-100.37,2.61-16.35,5.49-32.88,10-48.83,3.44-12.1,11.36-24.81,24.91-26.68,11.05-1.52,24.25,6.64,30.65,12.35,11.51,10.24,28.54-6.68,17-17Z"
     transform="translate(-114.89 -315.6)"
     id="path6"
     style="fill:#512da8" />
  <path
     class="cls-1"
     d="M1380,429a1990.6,1990.6,0,0,0,221.43-12.73q29.94-3.42,59.76-7.7c6.42-.91,9.94-9.08,8.38-14.76-1.9-6.9-8.32-9.3-14.76-8.38A1961.12,1961.12,0,0,1,1440.93,404q-30.45,1-60.93,1c-15.44,0-15.47,24,0,24Z"
     transform="translate(-114.89 -315.6)"
     id="path8"
     style="fill:#5e35b1" />
  <path
     class="cls-1"
     d="M952.43,435.81a23.48,23.48,0,0,1-.79,2.46l1.21-2.87a12.07,12.07,0,0,1-1.12,2L953.6,435a6.93,6.93,0,0,1-1.23,1.25l2.43-1.87a7.3,7.3,0,0,1-1.28.71l2.86-1.21c-.7.28-1.43.47-2.14.72a17.24,17.24,0,0,0-6.73,3.92c-4.6,4.29-4.66,12.7,0,17a12.28,12.28,0,0,0,17,0,2.35,2.35,0,0,1,.29-.26l-2.42,1.87a4.31,4.31,0,0,1,.84-.47l-2.86,1.21c2.73-1.08,5.42-1.86,7.78-3.69a21.42,21.42,0,0,0,7.45-12c1.6-6.06-2-13.31-8.38-14.76s-13.05,1.89-14.76,8.38Z"
     transform="translate(-114.89 -315.6)"
     id="path10"
     style="fill:#5e35b1" />
  <path
     class="cls-1"
     d="M1183,445.63a20.73,20.73,0,0,1-.79,2.46l1.21-2.87a11.78,11.78,0,0,1-1.12,2l1.87-2.43a6.93,6.93,0,0,1-1.23,1.25l2.43-1.88a7.35,7.35,0,0,1-1.28.72l2.86-1.21c-.7.28-1.43.47-2.14.72a17,17,0,0,0-6.72,3.92c-4.61,4.29-4.67,12.69,0,17a12.25,12.25,0,0,0,17,0l.29-.26-2.42,1.88a4.39,4.39,0,0,1,.85-.47l-2.87,1.2c2.73-1.07,5.42-1.86,7.79-3.68a21.53,21.53,0,0,0,7.44-12c1.6-6.07-2-13.32-8.38-14.77s-13,1.89-14.76,8.38Z"
     transform="translate(-114.89 -315.6)"
     id="path12"
     style="fill:#5e35b1" />
  <path
     class="cls-1"
     d="M1374.37,466.94a21.39,21.39,0,0,1-.8,2.46l1.21-2.87a11.1,11.1,0,0,1-1.11,2l1.87-2.43a7.28,7.28,0,0,1-1.23,1.25l2.43-1.88a7.09,7.09,0,0,1-1.29.72l2.87-1.21c-.7.28-1.43.47-2.14.71a17.26,17.26,0,0,0-6.73,3.93c-4.6,4.29-4.66,12.69,0,17a12.26,12.26,0,0,0,17,0,3.48,3.48,0,0,1,.3-.26l-2.43,1.87a4.7,4.7,0,0,1,.85-.47l-2.86,1.21c2.73-1.07,5.42-1.86,7.78-3.69a21.42,21.42,0,0,0,7.45-12c1.6-6.06-2-13.31-8.38-14.76s-13.05,1.89-14.76,8.38Z"
     transform="translate(-114.89 -315.6)"
     id="path14"
     style="fill:#5e35b1" />
</svg>
