<?xml version="1.0" encoding="UTF-8" standalone="no"?>
<!-- Created with Inkscape (http://www.inkscape.org/) -->

<svg
   width="512"
   height="512"
   viewBox="0 0 512 512"
   version="1.1"
   id="svg5"
   inkscape:version="1.1.1 (3bf5ae0d25, 2021-09-20, custom)"
   sodipodi:docname="packager.svg"
   xmlns:inkscape="http://www.inkscape.org/namespaces/inkscape"
   xmlns:sodipodi="http://sodipodi.sourceforge.net/DTD/sodipodi-0.dtd"
   xmlns="http://www.w3.org/2000/svg"
   xmlns:svg="http://www.w3.org/2000/svg">
  <sodipodi:namedview
     id="namedview7"
     pagecolor="#ffffff"
     bordercolor="#666666"
     borderopacity="1.0"
     inkscape:pageshadow="2"
     inkscape:pageopacity="0.0"
     inkscape:pagecheckerboard="0"
     inkscape:document-units="px"
     showgrid="false"
     inkscape:snap-bbox="true"
     inkscape:snap-bbox-midpoints="true"
     inkscape:snap-bbox-edge-midpoints="true"
     inkscape:bbox-nodes="true"
     inkscape:bbox-paths="true"
     inkscape:zoom="1.4199219"
     inkscape:cx="276.42365"
     inkscape:cy="227.12517"
     inkscape:window-width="1920"
     inkscape:window-height="994"
     inkscape:window-x="0"
     inkscape:window-y="22"
     inkscape:window-maximized="1"
     inkscape:current-layer="layer1" />
  <defs
     id="defs2">
    <inkscape:path-effect
       effect="fillet_chamfer"
       id="path-effect1396"
       is_visible="true"
       lpeversion="1"
       satellites_param="F,0,0,1,0,12.5,0,1 @ F,0,0,1,0,12.5,0,1 @ F,0,0,1,0,12.5,0,1 @ F,0,0,1,0,12.5,0,1"
       unit="px"
       method="auto"
       mode="F"
       radius="12.5"
       chamfer_steps="1"
       flexible="false"
       use_knot_distance="true"
       apply_no_radius="true"
       apply_with_radius="true"
       only_selected="false"
       hide_knots="false" />
  </defs>
  <g
     inkscape:label="Layer 1"
     inkscape:groupmode="layer"
     id="layer1">
    <path
       style="fill:#494949;fill-opacity:1;fill-rule:evenodd;stroke-width:0.965339"
       id="rect31"
       width="512"
       height="150"
       x="0"
       y="362"
       inkscape:path-effect="#path-effect1396"
       sodipodi:type="rect"
       d="m 12.5,362 h 487 a 12.5,12.5 45 0 1 12.5,12.5 v 125 A 12.5,12.5 135 0 1 499.5,512 H 12.5 A 12.5,12.5 45 0 1 0,499.5 v -125 A 12.5,12.5 135 0 1 12.5,362 Z" />
    <rect
       style="fill:#1a237e;stroke-width:1.00872"
       id="rect915"
       width="83.365456"
       height="300.00003"
       x="470.31726"
       y="61.999969" />
    <rect
       style="fill:#1a237e;stroke-width:1.00872"
       id="rect915-3"
       width="83.365456"
       height="300.00003"
       x="-41.682728"
       y="61.999969" />
    <rect
       style="fill:#f50057;stroke-width:1.32422"
       id="rect847"
       width="595.36548"
       height="45.839771"
       x="-41.682728"
       y="16.160198" />
    <g
       id="g968"
       transform="translate(-2e-6,-3.0517578e-5)">
      <path
         id="rect3095-6-3"
         style="fill:#757575;stroke-width:1.27201"
         d="m 54.183594,62 a 12.5,12.5 0 0 0 -12.5,12.5 v 25 262.5 h 50 V 124.5 A 12.5,12.5 0 0 1 104.18359,112 h 303.63282 a 12.5,12.5 0 0 1 12.5,12.5 V 362 h 50 v -237.5 -50 a 12.5,12.5 0 0 0 -12.5,-12.5 h -25 z" />
    </g>
    <rect
       style="fill:#e3f2fd;stroke-width:0.841456"
       id="rect855"
       width="200"
       height="30"
       x="156"
       y="312" />
    <rect
       style="fill:#666666;stroke-width:0.846804"
       id="rect1513"
       width="260"
       height="20"
       x="126"
       y="342" />
    <rect
       style="fill:#673ab7;stroke-width:0.846804"
       id="rect1513-3"
       width="260"
       height="20"
       x="126"
       y="292" />
    <rect
       style="fill:#808080;stroke-width:1.26342"
       id="rect1708"
       width="16.909109"
       height="80"
       x="247.54544"
       y="211.99997" />
    <rect
       style="fill:#666666;stroke-width:1.20943"
       id="rect1884"
       width="35"
       height="100"
       x="238.5"
       y="111.99997" />
  </g>
</svg>
