<?xml version="1.0" encoding="UTF-8" standalone="no"?>
<!-- Created with Inkscape (http://www.inkscape.org/) -->

<svg
   width="512"
   height="512"
   viewBox="0 0 512 512"
   version="1.1"
   id="svg5"
   inkscape:version="1.1.1 (3bf5ae0d25, 2021-09-20, custom)"
   sodipodi:docname="sewing.svg"
   xmlns:inkscape="http://www.inkscape.org/namespaces/inkscape"
   xmlns:sodipodi="http://sodipodi.sourceforge.net/DTD/sodipodi-0.dtd"
   xmlns="http://www.w3.org/2000/svg"
   xmlns:svg="http://www.w3.org/2000/svg">
  <sodipodi:namedview
     id="namedview7"
     pagecolor="#ffffff"
     bordercolor="#666666"
     borderopacity="1.0"
     inkscape:pageshadow="2"
     inkscape:pageopacity="0.0"
     inkscape:pagecheckerboard="0"
     inkscape:document-units="px"
     showgrid="false"
     inkscape:snap-bbox="true"
     inkscape:bbox-paths="true"
     inkscape:bbox-nodes="true"
     inkscape:snap-bbox-edge-midpoints="true"
     inkscape:snap-bbox-midpoints="true"
     showguides="false"
     inkscape:zoom="1.4199219"
     inkscape:cx="200.011"
     inkscape:cy="260.92985"
     inkscape:window-width="1920"
     inkscape:window-height="994"
     inkscape:window-x="0"
     inkscape:window-y="22"
     inkscape:window-maximized="1"
     inkscape:current-layer="layer2" />
  <defs
     id="defs2">
    <inkscape:path-effect
       effect="fillet_chamfer"
       id="path-effect17427"
       is_visible="true"
       lpeversion="1"
       satellites_param="F,0,0,1,0,3,0,1 @ F,0,0,1,0,3,0,1 @ F,0,0,1,0,3,0,1 @ F,0,0,1,0,3,0,1"
       unit="px"
       method="auto"
       mode="F"
       radius="3"
       chamfer_steps="1"
       flexible="false"
       use_knot_distance="true"
       apply_no_radius="true"
       apply_with_radius="true"
       only_selected="false"
       hide_knots="false" />
    <inkscape:path-effect
       effect="fillet_chamfer"
       id="path-effect12669"
       is_visible="true"
       lpeversion="1"
       satellites_param="F,0,0,1,0,12.5,0,1 @ F,0,0,1,0,12.5,0,1 @ F,0,0,1,0,12.5,0,1 @ F,0,0,1,0,12.5,0,1 @ F,0,0,1,0,12.5,0,1 @ F,0,0,1,0,12.5,0,1 @ F,0,0,1,0,12.5,0,1 @ F,0,0,1,0,12.5,0,1 @ F,0,0,1,0,12.5,0,1 @ F,0,0,1,0,12.5,0,1 @ F,0,0,1,0,12.5,0,1"
       unit="px"
       method="auto"
       mode="F"
       radius="12.5"
       chamfer_steps="1"
       flexible="false"
       use_knot_distance="true"
       apply_no_radius="true"
       apply_with_radius="true"
       only_selected="false"
       hide_knots="false" />
    <inkscape:path-effect
       effect="fillet_chamfer"
       id="path-effect1396"
       is_visible="true"
       lpeversion="1"
       satellites_param="F,0,0,1,0,12.5,0,1 @ F,0,0,1,0,12.5,0,1 @ F,0,0,1,0,12.5,0,1 @ F,0,0,1,0,12.5,0,1"
       unit="px"
       method="auto"
       mode="F"
       radius="12.5"
       chamfer_steps="1"
       flexible="false"
       use_knot_distance="true"
       apply_no_radius="true"
       apply_with_radius="true"
       only_selected="false"
       hide_knots="false" />
    <inkscape:path-effect
       effect="fillet_chamfer"
       id="path-effect8376"
       is_visible="true"
       lpeversion="1"
       satellites_param="F,0,0,1,0,30,0,1 @ F,0,0,1,0,30,0,1 @ F,0,0,1,0,30,0,1 @ F,0,0,1,0,30,0,1"
       unit="px"
       method="auto"
       mode="F"
       radius="30"
       chamfer_steps="1"
       flexible="false"
       use_knot_distance="true"
       apply_no_radius="true"
       apply_with_radius="true"
       only_selected="false"
       hide_knots="false" />
  </defs>
  <g
     inkscape:label="Layer 1"
     inkscape:groupmode="layer"
     id="layer1">
    <path
       style="fill:#494949;fill-opacity:1;fill-rule:evenodd;stroke-width:0.965339"
       id="rect31"
       width="512"
       height="150"
       x="0"
       y="362"
       inkscape:path-effect="#path-effect1396"
       d="m 12.5,362 h 487 a 12.5,12.5 45 0 1 12.5,12.5 v 125 A 12.5,12.5 135 0 1 499.5,512 H 12.5 A 12.5,12.5 45 0 1 0,499.5 v -125 A 12.5,12.5 135 0 1 12.5,362 Z"
       sodipodi:type="rect" />
    <path
       id="rect1420"
       style="fill:#a4a4a4;fill-opacity:1;stroke-width:0.986708"
       d="m 106,74.5 0,95 a 12.5,12.5 45 0 0 12.5,12.5 h 205 a 12.5,12.5 45 0 1 12.5,12.5 l 0,89.59961 a 12.5,12.5 135 0 1 -12.5,12.5 h -255 a 12.5,12.5 135 0 0 -12.5,12.5 V 349.5 A 12.5,12.5 45 0 0 68.5,362 h 375 A 12.5,12.5 135 0 0 456,349.5 V 309.09961 194.5 74.5 A 12.5,12.5 45 0 0 443.5,62 l -95,0 h -230 A 12.5,12.5 135 0 0 106,74.5 Z"
       inkscape:original-d="M 106 62 L 106 182 L 336 182 L 336 296.59961 L 56 296.59961 L 56 362 L 456 362 L 456 296.59961 L 456 182 L 456 62 L 336 62 L 106 62 z "
       inkscape:path-effect="#path-effect12669" />
    <rect
       style="fill:#757575;fill-opacity:1;stroke-width:0.414096"
       id="rect1619"
       width="5"
       height="50"
       x="140"
       y="192.00002" />
    <rect
       style="fill:#757575;fill-opacity:1;stroke-width:0.58562"
       id="rect1619-3"
       width="10"
       height="50"
       x="-192.00002"
       y="120"
       transform="rotate(-90)" />
    <rect
       style="fill:#757575;fill-opacity:1;stroke-width:0.740758"
       id="rect1619-3-5"
       width="10"
       height="80"
       x="-296.59991"
       y="105"
       transform="rotate(-90)" />
    <path
       id="rect2179"
       style="fill:#673ab7;fill-opacity:1;stroke-width:1.266"
       d="M 147.42578 97 A 2.5 2.5 0 0 0 144.92578 99.5 L 144.92578 242 L 149.92578 242 L 149.92578 104.5 A 2.5 2.5 0 0 1 152.42578 102 L 243.41211 102 L 243.41211 97 L 147.42578 97 z " />
    <rect
       style="fill:#757575;fill-opacity:1;stroke-width:1.14373"
       id="rect2301"
       width="100"
       height="10"
       x="235"
       y="117" />
    <path
       style="fill:#757575;fill-opacity:1;stroke-width:0.969055"
       id="rect12815-3"
       width="60"
       height="18.585716"
       x="162.46289"
       y="150"
       inkscape:path-effect="#path-effect17427"
       d="m 165.46289,150 h 54 a 3,3 45 0 1 3,3 v 12.58572 a 3,3 135 0 1 -3,3 h -54 a 3,3 45 0 1 -3,-3 V 153 a 3,3 135 0 1 3,-3 z"
       sodipodi:type="rect" />
    <rect
       style="fill:#373737;fill-opacity:1;stroke-width:1.07881"
       id="rect14523-2"
       width="3"
       height="8"
       x="168.46289"
       y="152" />
    <rect
       style="fill:#373737;fill-opacity:1;stroke-width:1.07881"
       id="rect14523-2-4"
       width="3"
       height="8"
       x="183.46289"
       y="159" />
    <rect
       style="fill:#373737;fill-opacity:1;stroke-width:1.07881"
       id="rect14523-2-7"
       width="3"
       height="8"
       x="198.46289"
       y="152" />
    <rect
       style="fill:#373737;fill-opacity:1;stroke-width:1.07881"
       id="rect14523-2-4-8"
       width="3"
       height="8"
       x="213.46289"
       y="159" />
  </g>
  <g
     inkscape:groupmode="layer"
     id="layer4"
     inkscape:label="Layer 4" />
  <g
     inkscape:groupmode="layer"
     id="layer3"
     inkscape:label="Layer 3" />
  <g
     inkscape:groupmode="layer"
     id="layer2"
     inkscape:label="Layer 2">
    <rect
       style="fill:#673ab7;fill-opacity:1;stroke-width:0.749911"
       id="rect2179-1"
       width="5"
       height="50"
       x="278.5"
       y="97.000008" />
    <rect
       style="fill:#673ab7;fill-opacity:1;stroke-width:0.749911"
       id="rect2179-1-2"
       width="5"
       height="50"
       x="270.5"
       y="97.000008" />
    <rect
       style="fill:#673ab7;fill-opacity:1;stroke-width:0.749911"
       id="rect2179-1-2-7"
       width="5"
       height="50"
       x="262.5"
       y="97.000008" />
    <rect
       style="fill:#673ab7;fill-opacity:1;stroke-width:0.749911"
       id="rect2179-1-2-7-0"
       width="5"
       height="50"
       x="254.5"
       y="97.000008" />
    <rect
       style="fill:#673ab7;fill-opacity:1;stroke-width:0.749911"
       id="rect2179-1-2-7-0-9"
       width="5"
       height="50"
       x="246.5"
       y="97.000008" />
    <rect
       style="fill:#673ab7;fill-opacity:1;stroke-width:0.749911"
       id="rect2179-1-6"
       width="5"
       height="50"
       x="318.5"
       y="97.000008" />
    <rect
       style="fill:#673ab7;fill-opacity:1;stroke-width:0.749911"
       id="rect2179-1-6-1"
       width="5"
       height="50"
       x="326.5"
       y="97.000008" />
    <rect
       style="fill:#673ab7;fill-opacity:1;stroke-width:0.749911"
       id="rect2179-1-2-0"
       width="5"
       height="50"
       x="310.5"
       y="97.000008" />
    <rect
       style="fill:#673ab7;fill-opacity:1;stroke-width:0.749911"
       id="rect2179-1-2-7-6"
       width="5"
       height="50"
       x="302.5"
       y="97.000008" />
    <rect
       style="fill:#673ab7;fill-opacity:1;stroke-width:0.749911"
       id="rect2179-1-2-7-0-2"
       width="5"
       height="50"
       x="294.5"
       y="97.000008" />
    <rect
       style="fill:#673ab7;fill-opacity:1;stroke-width:0.749911"
       id="rect2179-1-2-7-0-9-6"
       width="5"
       height="50"
       x="286.5"
       y="97.000008" />
    <rect
       style="fill:#673ab7;fill-opacity:1;stroke-width:0.749911"
       id="rect2179-1-2-7-0-9-3"
       width="5"
       height="50"
       x="238.5"
       y="97.000008" />
    <g
       id="g26685"
       transform="rotate(-165,395.99999,121.99999)">
      <g
         id="g26211"
         transform="rotate(92.650948,396,122)">
        <circle
           style="fill:#757575;fill-opacity:1;stroke-width:1.06696"
           id="path17737"
           cx="325.04544"
           cy="-256.9931"
           r="40"
           transform="rotate(55.45428)" />
      </g>
      <circle
         style="fill:#373737;fill-opacity:1"
         id="path21864"
         cx="366.28131"
         cy="-223.74725"
         r="6.3809443"
         inkscape:transform-center-y="-29.721357"
         transform="rotate(45)" />
    </g>
    <g
       id="g26680"
       transform="rotate(30,395.99999,221.99998)">
      <circle
         style="fill:#757575;fill-opacity:1;stroke-width:1.06696"
         id="path17737-06"
         cx="-218.91577"
         cy="-397.71329"
         r="40"
         transform="rotate(148.10523)" />
      <circle
         style="fill:#373737;fill-opacity:1"
         id="path21864-3"
         cx="436.99197"
         cy="-153.03658"
         r="6.3809443"
         inkscape:transform-center-y="-29.721357"
         transform="rotate(45)" />
    </g>
  </g>
</svg>
