<?xml version="1.0" encoding="UTF-8" standalone="no"?>
<!-- Created with Inkscape (http://www.inkscape.org/) -->

<svg
   width="37.041668mm"
   height="37.041668mm"
   viewBox="0 0 140 140"
   version="1.1"
   id="svg9224"
   inkscape:version="1.1.1 (3bf5ae0d25, 2021-09-20)"
   sodipodi:docname="dyeing_swoosh.svg"
   xmlns:inkscape="http://www.inkscape.org/namespaces/inkscape"
   xmlns:sodipodi="http://sodipodi.sourceforge.net/DTD/sodipodi-0.dtd"
   xmlns="http://www.w3.org/2000/svg"
   xmlns:svg="http://www.w3.org/2000/svg"
   xmlns:rdf="http://www.w3.org/1999/02/22-rdf-syntax-ns#"
   xmlns:cc="http://creativecommons.org/ns#"
   xmlns:dc="http://purl.org/dc/elements/1.1/">
  <defs
     id="defs9218" />
  <sodipodi:namedview
     id="base"
     pagecolor="#ffffff"
     bordercolor="#666666"
     borderopacity="1.0"
     inkscape:pageopacity="0.0"
     inkscape:pageshadow="2"
     inkscape:zoom="5.6568542"
     inkscape:cx="58.424698"
     inkscape:cy="70.799067"
     inkscape:document-units="px"
     inkscape:current-layer="layer1"
     inkscape:pagecheckerboard="0"
     showgrid="false"
     fit-margin-top="0"
     fit-margin-left="0"
     fit-margin-right="0"
     fit-margin-bottom="0"
     inkscape:window-width="1920"
     inkscape:window-height="1017"
     inkscape:window-x="-8"
     inkscape:window-y="-8"
     inkscape:window-maximized="1"
     inkscape:snap-bbox="true"
     inkscape:bbox-paths="true"
     inkscape:bbox-nodes="true"
     inkscape:snap-bbox-edge-midpoints="true"
     inkscape:snap-bbox-midpoints="true"
     inkscape:object-paths="true"
     inkscape:snap-smooth-nodes="true" />
  <metadata
     id="metadata9221">
    <rdf:RDF>
      <cc:Work
         rdf:about="">
        <dc:format>image/svg+xml</dc:format>
        <dc:type
           rdf:resource="http://purl.org/dc/dcmitype/StillImage" />
      </cc:Work>
    </rdf:RDF>
  </metadata>
  <g
     inkscape:label="Layer 1"
     inkscape:groupmode="layer"
     id="layer1"
     transform="translate(-1001.4286,-501.42857)">
    <path
       style="color:#000000;fill:#ffffff;stroke-linecap:round;stroke-linejoin:round;-inkscape-stroke:none;fill-opacity:0.50349653"
       d="m 1113.4277,568.42773 a 3,3 0 0 0 -3,3 c 0,13.93816 -7.4292,26.80632 -19.5,33.77539 a 3,3 0 0 0 -1.0976,4.09766 3,3 0 0 0 4.0976,1.09961 c 13.9189,-8.03606 22.5,-22.90053 22.5,-38.97266 a 3,3 0 0 0 -3,-3 z"
       id="path2313" />
    <circle
       style="fill:#ffffff;fill-opacity:0.50349653;stroke:none;stroke-width:6.38379;stroke-linecap:round;stroke-linejoin:round;stroke-miterlimit:4;stroke-dasharray:none"
       id="path3301"
       cx="1076.2164"
       cy="-613.42859"
       r="4.7878332"
       transform="scale(1,-1)" />
    <path
       style="color:#000000;fill:#ffffff;stroke-linecap:round;stroke-linejoin:round;-inkscape-stroke:none;fill-opacity:0.50349653"
       d="m 1092.6426,547.71484 a 2.5,2.5 0 0 0 -1.7676,0.73243 2.5,2.5 0 0 0 0,3.53515 c 7.5613,7.56131 10.0519,18.80314 6.3945,28.85156 a 2.5,2.5 0 0 0 1.4942,3.20508 2.5,2.5 0 0 0 3.2051,-1.49414 c 4.3178,-11.86319 1.3683,-25.17075 -7.5586,-34.09765 a 2.5,2.5 0 0 0 -1.7676,-0.73243 z"
       id="path3631" />
  </g>
</svg>
